%FSLAX23Y23*%
%MOIN*%
G70*
G01*
G75*
G04 Layer_Physical_Order=2*
G04 Layer_Color=16711680*
%ADD10R,0.059X0.055*%
%ADD11R,0.100X0.060*%
%ADD12R,0.055X0.059*%
%ADD13R,0.071X0.075*%
%ADD14R,0.055X0.016*%
%ADD15O,0.083X0.010*%
%ADD16O,0.010X0.083*%
%ADD17R,0.217X0.079*%
%ADD18R,0.010X0.055*%
%ADD19R,0.055X0.010*%
%ADD20R,0.163X0.163*%
%ADD21C,0.010*%
%ADD22C,0.020*%
%ADD23C,0.015*%
%ADD24O,0.050X0.040*%
%ADD25R,0.050X0.040*%
%ADD26C,0.187*%
%ADD27R,0.067X0.067*%
%ADD28C,0.067*%
%ADD29C,0.030*%
%ADD30R,0.024X0.051*%
%ADD31R,0.024X0.043*%
G36*
X1958Y30D02*
X10D01*
Y1230D01*
X1958D01*
Y30D01*
D02*
G37*
%LPC*%
G36*
X469Y451D02*
X391D01*
Y373D01*
X469D01*
Y451D01*
D02*
G37*
G36*
X1066Y809D02*
X994D01*
Y742D01*
X1014D01*
Y736D01*
X996D01*
Y664D01*
X1014D01*
Y656D01*
X996D01*
Y584D01*
X1014D01*
Y572D01*
X1012D01*
Y519D01*
X1012Y517D01*
X1009Y514D01*
X1009Y514D01*
X977D01*
X973Y517D01*
X973Y519D01*
Y572D01*
X937D01*
Y561D01*
X916D01*
Y579D01*
X844D01*
Y512D01*
X916D01*
Y528D01*
X937D01*
Y517D01*
X955D01*
X955Y515D01*
X956Y512D01*
X951Y509D01*
X944Y501D01*
X940Y496D01*
X939Y490D01*
Y478D01*
X937D01*
Y422D01*
X939D01*
Y406D01*
X922D01*
Y334D01*
X939D01*
Y94D01*
X935Y88D01*
X934Y80D01*
X935Y72D01*
X940Y65D01*
X947Y60D01*
X955Y59D01*
X963Y60D01*
X970Y65D01*
X975Y72D01*
X976Y80D01*
X975Y88D01*
X972Y93D01*
Y334D01*
X989D01*
Y406D01*
X972D01*
Y422D01*
X973D01*
Y478D01*
X977Y481D01*
X1009D01*
X1012Y478D01*
Y422D01*
X1048D01*
Y478D01*
X1046D01*
Y490D01*
X1045Y496D01*
X1042Y501D01*
X1034Y509D01*
X1030Y512D01*
X1030Y515D01*
X1030Y517D01*
X1048D01*
Y572D01*
X1046D01*
Y584D01*
X1063D01*
Y656D01*
X1046D01*
Y664D01*
X1063D01*
Y736D01*
X1046D01*
Y742D01*
X1066D01*
Y809D01*
D02*
G37*
G36*
X1423Y416D02*
X1356D01*
Y344D01*
X1373D01*
Y340D01*
Y336D01*
X1356D01*
Y264D01*
X1421D01*
X1425Y260D01*
X1424Y255D01*
X1425Y247D01*
X1430Y240D01*
X1437Y235D01*
X1445Y234D01*
X1453Y235D01*
X1460Y240D01*
X1465Y247D01*
X1466Y255D01*
X1465Y260D01*
X1485Y280D01*
X1490Y279D01*
X1498Y280D01*
X1505Y285D01*
X1510Y292D01*
X1511Y300D01*
X1510Y308D01*
X1505Y315D01*
X1498Y320D01*
X1490Y321D01*
X1482Y320D01*
X1475Y315D01*
X1470Y308D01*
X1469Y300D01*
X1470Y295D01*
X1450Y275D01*
X1445Y276D01*
X1437Y275D01*
X1430Y270D01*
X1428Y267D01*
X1423Y269D01*
Y324D01*
X1432D01*
X1437Y320D01*
X1445Y319D01*
X1453Y320D01*
X1460Y325D01*
X1465Y332D01*
X1466Y340D01*
X1465Y348D01*
X1460Y355D01*
X1453Y360D01*
X1445Y361D01*
X1437Y360D01*
X1432Y356D01*
X1423D01*
Y416D01*
D02*
G37*
G36*
X1034Y398D02*
X1028Y397D01*
X1023Y393D01*
X1019Y388D01*
X1018Y382D01*
Y370D01*
X1019Y364D01*
X1023Y358D01*
X1028Y355D01*
X1034Y354D01*
X1041Y355D01*
X1046Y358D01*
X1049Y364D01*
X1051Y370D01*
Y382D01*
X1049Y388D01*
X1046Y393D01*
X1041Y397D01*
X1034Y398D01*
D02*
G37*
G36*
X1130Y681D02*
X1122Y680D01*
X1115Y675D01*
X1110Y668D01*
X1109Y660D01*
X1110Y652D01*
X1115Y645D01*
X1119Y642D01*
Y598D01*
X1115Y595D01*
X1110Y588D01*
X1109Y580D01*
X1110Y572D01*
X1115Y565D01*
X1122Y560D01*
X1130Y559D01*
X1138Y560D01*
X1145Y565D01*
X1150Y572D01*
X1151Y580D01*
X1150Y588D01*
X1145Y595D01*
X1141Y598D01*
Y642D01*
X1145Y645D01*
X1150Y652D01*
X1151Y660D01*
X1150Y668D01*
X1145Y675D01*
X1138Y680D01*
X1130Y681D01*
D02*
G37*
G36*
X205Y1041D02*
X115D01*
X109Y1040D01*
X103Y1037D01*
X81Y1014D01*
X78Y1009D01*
X76Y1003D01*
Y915D01*
X75D01*
Y852D01*
X76D01*
Y745D01*
X75D01*
Y682D01*
X110D01*
Y745D01*
X109D01*
Y761D01*
X112Y765D01*
X114Y765D01*
X148D01*
Y782D01*
X280D01*
X284Y774D01*
X290Y765D01*
X298Y759D01*
X308Y755D01*
X318Y754D01*
X328Y755D01*
X338Y759D01*
X346Y765D01*
X352Y774D01*
X356Y783D01*
X358Y794D01*
X356Y804D01*
X352Y813D01*
X346Y822D01*
X338Y828D01*
X328Y832D01*
X328Y832D01*
X328Y837D01*
X392D01*
X396Y828D01*
X402Y820D01*
X410Y814D01*
X420Y810D01*
X430Y808D01*
X440Y810D01*
X450Y814D01*
X458Y820D01*
X464Y828D01*
X468Y837D01*
X471Y838D01*
X473Y837D01*
X475Y835D01*
X479Y832D01*
Y758D01*
X475Y755D01*
X473Y752D01*
X467Y752D01*
X464Y759D01*
X458Y767D01*
X450Y773D01*
X440Y777D01*
X430Y779D01*
X420Y777D01*
X410Y773D01*
X402Y767D01*
X396Y759D01*
X392Y749D01*
X390Y739D01*
X392Y729D01*
X396Y719D01*
X402Y711D01*
X410Y705D01*
X420Y701D01*
X430Y699D01*
X440Y701D01*
X450Y705D01*
X458Y711D01*
X464Y719D01*
X467Y727D01*
X472Y728D01*
X473Y728D01*
X475Y725D01*
X482Y720D01*
X490Y719D01*
X498Y720D01*
X505Y725D01*
X510Y732D01*
X511Y740D01*
X510Y748D01*
X505Y755D01*
X501Y758D01*
Y832D01*
X505Y835D01*
X510Y842D01*
X511Y850D01*
X510Y858D01*
X505Y865D01*
X498Y870D01*
X490Y871D01*
X482Y870D01*
X475Y865D01*
X472Y861D01*
X467Y862D01*
X464Y868D01*
X458Y876D01*
X450Y882D01*
X440Y886D01*
X430Y888D01*
X420Y886D01*
X410Y882D01*
X402Y876D01*
X396Y868D01*
X392Y859D01*
X322D01*
X207Y974D01*
X203Y977D01*
X199Y978D01*
X199Y978D01*
X148D01*
Y998D01*
X118D01*
X116Y1003D01*
X122Y1009D01*
X198D01*
X291Y915D01*
X297Y912D01*
X303Y911D01*
X746D01*
X771Y886D01*
X772Y882D01*
X776Y875D01*
X783Y870D01*
X791Y868D01*
X800Y870D01*
X805Y874D01*
X892D01*
X897Y870D01*
X905Y869D01*
X913Y870D01*
X918Y874D01*
X988D01*
X994Y867D01*
Y821D01*
X1066D01*
Y838D01*
X1074D01*
Y821D01*
X1146D01*
Y888D01*
X1074D01*
Y871D01*
X1066D01*
Y888D01*
X1020D01*
X1006Y902D01*
X1001Y905D01*
X994Y906D01*
X918D01*
X913Y910D01*
X905Y911D01*
X897Y910D01*
X892Y906D01*
X804D01*
X800Y910D01*
X792Y911D01*
X765Y939D01*
X759Y942D01*
X753Y943D01*
X310D01*
X217Y1037D01*
X211Y1040D01*
X205Y1041D01*
D02*
G37*
G36*
X1240Y921D02*
X1232Y920D01*
X1225Y915D01*
X1220Y908D01*
X1219Y900D01*
X1220Y892D01*
X1225Y885D01*
X1232Y880D01*
X1238Y879D01*
X1274Y843D01*
X1279Y839D01*
X1286Y838D01*
X1544D01*
Y821D01*
X1616D01*
Y838D01*
X1624D01*
Y821D01*
X1696D01*
X1699Y817D01*
Y813D01*
X1696Y809D01*
X1694Y809D01*
X1624D01*
Y742D01*
X1641D01*
Y736D01*
X1626D01*
Y664D01*
X1641D01*
Y656D01*
X1626D01*
Y584D01*
X1641D01*
Y575D01*
X1640D01*
Y521D01*
X1640Y520D01*
X1636Y516D01*
X1636Y516D01*
X1604D01*
X1600Y520D01*
X1600Y521D01*
Y575D01*
X1565D01*
Y564D01*
X1548D01*
Y581D01*
X1481D01*
Y509D01*
X1548D01*
Y531D01*
X1565D01*
Y520D01*
X1582D01*
X1583Y518D01*
X1583Y515D01*
X1578Y512D01*
X1571Y504D01*
X1568Y499D01*
X1566Y493D01*
Y480D01*
X1565D01*
Y425D01*
X1566D01*
Y406D01*
X1547D01*
Y391D01*
X1504D01*
X1499Y395D01*
X1490Y396D01*
X1482Y395D01*
X1475Y390D01*
X1471Y383D01*
X1469Y375D01*
X1471Y367D01*
X1475Y360D01*
X1482Y355D01*
X1490Y354D01*
X1499Y355D01*
X1504Y359D01*
X1547D01*
Y334D01*
X1564D01*
Y234D01*
X1566Y228D01*
X1569Y223D01*
X1664Y128D01*
X1665Y122D01*
X1670Y115D01*
X1677Y110D01*
X1685Y109D01*
X1693Y110D01*
X1700Y115D01*
X1705Y122D01*
X1706Y130D01*
X1705Y138D01*
X1700Y145D01*
X1693Y150D01*
X1687Y151D01*
X1597Y241D01*
Y334D01*
X1614D01*
Y406D01*
X1599D01*
Y425D01*
X1600D01*
Y480D01*
X1604Y484D01*
X1636D01*
X1640Y480D01*
Y425D01*
X1675D01*
Y480D01*
X1674D01*
Y493D01*
X1672Y499D01*
X1669Y504D01*
X1662Y512D01*
X1657Y515D01*
X1657Y518D01*
X1658Y520D01*
X1675D01*
Y575D01*
X1674D01*
Y584D01*
X1693D01*
Y656D01*
X1674D01*
Y664D01*
X1693D01*
Y736D01*
X1678D01*
X1676Y741D01*
X1677Y742D01*
X1694D01*
X1696Y742D01*
X1699Y738D01*
X1699Y738D01*
Y660D01*
X1700Y654D01*
X1703Y648D01*
X1748Y603D01*
X1754Y600D01*
X1760Y599D01*
X1792D01*
Y579D01*
X1859D01*
Y651D01*
X1792D01*
Y631D01*
X1767D01*
X1731Y667D01*
Y829D01*
X1772D01*
X1777Y825D01*
X1785Y824D01*
X1793Y825D01*
X1800Y830D01*
X1805Y837D01*
X1806Y845D01*
X1805Y853D01*
X1800Y860D01*
X1793Y865D01*
X1785Y866D01*
X1777Y865D01*
X1772Y861D01*
X1696D01*
Y888D01*
X1624D01*
Y871D01*
X1616D01*
Y888D01*
X1544D01*
Y871D01*
X1292D01*
X1261Y902D01*
X1260Y908D01*
X1255Y915D01*
X1248Y920D01*
X1240Y921D01*
D02*
G37*
G36*
X1680Y951D02*
X1672Y950D01*
X1665Y945D01*
X1660Y938D01*
X1659Y930D01*
X1660Y922D01*
X1665Y915D01*
X1672Y910D01*
X1680Y909D01*
X1688Y910D01*
X1695Y915D01*
X1698Y919D01*
X1815D01*
X1826Y908D01*
X1826Y908D01*
X1822Y902D01*
X1819Y896D01*
X1818Y889D01*
X1819Y882D01*
X1822Y876D01*
X1826Y870D01*
X1831Y867D01*
X1831Y864D01*
X1831Y861D01*
X1826Y858D01*
X1822Y852D01*
X1819Y846D01*
X1818Y839D01*
X1819Y832D01*
X1822Y826D01*
X1826Y820D01*
X1831Y817D01*
X1831Y814D01*
X1831Y811D01*
X1826Y808D01*
X1822Y802D01*
X1819Y796D01*
X1818Y789D01*
X1819Y782D01*
X1822Y776D01*
X1826Y770D01*
X1831Y767D01*
X1831Y764D01*
X1831Y761D01*
X1826Y758D01*
X1822Y752D01*
X1819Y746D01*
X1818Y739D01*
X1819Y732D01*
X1822Y726D01*
X1826Y720D01*
X1831Y717D01*
X1831Y714D01*
X1831Y711D01*
X1826Y708D01*
X1822Y702D01*
X1821Y700D01*
X1786D01*
X1784Y704D01*
X1777Y709D01*
X1768Y710D01*
X1760Y709D01*
X1753Y704D01*
X1749Y697D01*
X1747Y689D01*
X1749Y681D01*
X1753Y674D01*
X1760Y669D01*
X1768Y667D01*
X1777Y669D01*
X1784Y674D01*
X1786Y678D01*
X1821D01*
X1822Y676D01*
X1826Y670D01*
X1831Y666D01*
X1838Y664D01*
X1844Y663D01*
X1854D01*
X1861Y664D01*
X1867Y666D01*
X1873Y670D01*
X1873Y671D01*
X1878Y669D01*
Y663D01*
X1888D01*
Y651D01*
X1871D01*
Y579D01*
X1938D01*
Y651D01*
X1921D01*
Y663D01*
X1940D01*
Y715D01*
X1878D01*
Y709D01*
X1873Y707D01*
X1873Y708D01*
X1868Y711D01*
X1868Y714D01*
X1868Y717D01*
X1873Y720D01*
X1877Y726D01*
X1880Y732D01*
X1881Y739D01*
X1880Y746D01*
X1877Y752D01*
X1873Y758D01*
X1868Y761D01*
X1868Y764D01*
X1868Y767D01*
X1873Y770D01*
X1877Y776D01*
X1880Y782D01*
X1881Y789D01*
X1880Y796D01*
X1877Y802D01*
X1873Y808D01*
X1868Y811D01*
X1868Y814D01*
X1868Y817D01*
X1873Y820D01*
X1877Y825D01*
X1879Y826D01*
X1882Y825D01*
X1886Y820D01*
X1891Y816D01*
X1898Y814D01*
X1904Y813D01*
X1914D01*
X1921Y814D01*
X1927Y816D01*
X1933Y820D01*
X1937Y826D01*
X1940Y832D01*
X1941Y839D01*
X1940Y846D01*
X1937Y852D01*
X1933Y858D01*
X1928Y861D01*
X1928Y864D01*
X1928Y867D01*
X1933Y870D01*
X1937Y876D01*
X1940Y882D01*
X1941Y889D01*
X1940Y896D01*
X1937Y902D01*
X1933Y908D01*
X1927Y912D01*
X1921Y914D01*
X1914Y915D01*
X1904D01*
X1898Y914D01*
X1891Y912D01*
X1886Y908D01*
X1882Y903D01*
X1879Y902D01*
X1877Y903D01*
X1873Y908D01*
X1867Y912D01*
X1861Y914D01*
X1854Y915D01*
X1851D01*
X1828Y938D01*
X1824Y940D01*
X1820Y941D01*
X1820Y941D01*
X1698D01*
X1695Y945D01*
X1688Y950D01*
X1680Y951D01*
D02*
G37*
G36*
X318Y724D02*
X308Y723D01*
X298Y719D01*
X290Y712D01*
X284Y704D01*
X280Y695D01*
X279Y684D01*
X280Y674D01*
X284Y665D01*
X290Y656D01*
X298Y650D01*
X308Y646D01*
X310Y646D01*
X315Y645D01*
X315D01*
X316Y645D01*
X316Y645D01*
X316Y645D01*
X316Y645D01*
X316Y645D01*
X316Y640D01*
X148D01*
Y658D01*
X112D01*
Y595D01*
X148D01*
Y613D01*
X395D01*
X396Y610D01*
X402Y602D01*
X410Y596D01*
X420Y592D01*
X430Y590D01*
X440Y592D01*
X446Y594D01*
X474Y567D01*
Y527D01*
X469Y527D01*
X468Y531D01*
X464Y541D01*
X458Y549D01*
X450Y555D01*
X440Y559D01*
X430Y560D01*
X420Y559D01*
X410Y555D01*
X402Y549D01*
X396Y541D01*
X393Y535D01*
X286D01*
X286Y535D01*
X281Y534D01*
X276Y531D01*
X276Y531D01*
X216Y470D01*
X148D01*
Y488D01*
X114D01*
X112Y488D01*
X109Y492D01*
X109Y492D01*
Y512D01*
X110D01*
Y575D01*
X75D01*
Y512D01*
X76D01*
Y405D01*
X75D01*
Y342D01*
X76D01*
Y327D01*
X78Y321D01*
X81Y316D01*
X123Y273D01*
X129Y270D01*
X135Y269D01*
X857D01*
X862Y265D01*
X870Y264D01*
X878Y265D01*
X885Y270D01*
X890Y277D01*
X891Y285D01*
X890Y293D01*
X885Y300D01*
X878Y305D01*
X870Y306D01*
X862Y305D01*
X857Y301D01*
X142D01*
X109Y334D01*
Y342D01*
X110D01*
Y405D01*
X109D01*
Y421D01*
X112Y425D01*
X114Y425D01*
X148D01*
Y443D01*
X221D01*
X227Y444D01*
X231Y447D01*
X292Y507D01*
X301D01*
X302Y502D01*
X298Y501D01*
X290Y494D01*
X284Y486D01*
X280Y477D01*
X279Y466D01*
X280Y456D01*
X284Y447D01*
X290Y438D01*
X298Y432D01*
X308Y428D01*
X318Y427D01*
X328Y428D01*
X338Y432D01*
X346Y438D01*
X352Y447D01*
X356Y456D01*
X358Y466D01*
X356Y477D01*
X352Y486D01*
X346Y494D01*
X338Y501D01*
X334Y502D01*
X335Y507D01*
X393D01*
X396Y501D01*
X402Y493D01*
X410Y487D01*
X420Y483D01*
X430Y481D01*
X440Y483D01*
X446Y485D01*
X565Y365D01*
X565Y365D01*
X570Y362D01*
X575Y361D01*
X575Y361D01*
X850D01*
X855Y362D01*
X860Y365D01*
X883Y389D01*
X885Y389D01*
X893Y390D01*
X900Y395D01*
X905Y402D01*
X906Y410D01*
X905Y418D01*
X900Y425D01*
X893Y430D01*
X885Y431D01*
X877Y430D01*
X870Y425D01*
X865Y418D01*
X864Y410D01*
X864Y408D01*
X861Y405D01*
X856Y407D01*
X856Y410D01*
X855Y418D01*
X850Y425D01*
X843Y430D01*
X835Y431D01*
X827Y430D01*
X820Y425D01*
X819Y424D01*
X601D01*
X501Y523D01*
Y572D01*
X500Y578D01*
X499Y580D01*
X497Y582D01*
X497Y582D01*
X466Y614D01*
X468Y620D01*
X470Y630D01*
X468Y640D01*
X464Y650D01*
X458Y658D01*
X450Y664D01*
X440Y668D01*
X430Y670D01*
X420Y668D01*
X410Y664D01*
X402Y658D01*
X396Y650D01*
X392Y640D01*
X392Y640D01*
X320D01*
X320Y645D01*
X320Y645D01*
X320Y645D01*
X320Y645D01*
X321Y645D01*
X321Y645D01*
X326Y646D01*
X328Y646D01*
X338Y650D01*
X346Y656D01*
X352Y665D01*
X356Y674D01*
X358Y684D01*
X356Y695D01*
X352Y704D01*
X346Y712D01*
X338Y719D01*
X328Y723D01*
X318Y724D01*
D02*
G37*
%LPD*%
G36*
X309Y840D02*
X309Y840D01*
X313Y838D01*
X313Y838D01*
X313Y832D01*
X308Y832D01*
X298Y828D01*
X290Y822D01*
X284Y813D01*
X280Y805D01*
X148D01*
Y828D01*
X114D01*
X112Y828D01*
X109Y832D01*
X109Y832D01*
Y852D01*
X110D01*
Y915D01*
X109D01*
Y931D01*
X112Y935D01*
X114Y935D01*
X148D01*
Y955D01*
X194D01*
X309Y840D01*
D02*
G37*
D10*
X1580Y776D02*
D03*
Y854D02*
D03*
X1110Y776D02*
D03*
Y854D02*
D03*
X880Y624D02*
D03*
Y546D02*
D03*
X1660Y776D02*
D03*
Y854D02*
D03*
X1030Y776D02*
D03*
Y854D02*
D03*
D12*
X1904Y615D02*
D03*
X1826D02*
D03*
X1311Y300D02*
D03*
X1389D02*
D03*
X1311Y380D02*
D03*
X1389D02*
D03*
X1659Y370D02*
D03*
X1581D02*
D03*
Y700D02*
D03*
X1659D02*
D03*
X1581Y620D02*
D03*
X1659D02*
D03*
X1436Y545D02*
D03*
X1514D02*
D03*
X1034Y370D02*
D03*
X956D02*
D03*
X951Y620D02*
D03*
X1029D02*
D03*
X951Y700D02*
D03*
X1029D02*
D03*
D21*
X1130Y580D02*
Y660D01*
X490Y740D02*
Y850D01*
X1445Y255D02*
X1490Y300D01*
X130Y796D02*
X133Y794D01*
X318D01*
X317Y848D02*
X430D01*
X199Y966D02*
X317Y848D01*
X130Y966D02*
X199D01*
X1820Y930D02*
X1855Y895D01*
X1680Y930D02*
X1820D01*
X1849Y689D02*
X1855Y695D01*
X1768Y689D02*
X1849D01*
D22*
X753Y927D02*
X790Y890D01*
X303Y927D02*
X753D01*
X205Y1025D02*
X303Y927D01*
X955Y80D02*
Y450D01*
X1389Y340D02*
X1445D01*
X790Y890D02*
X905D01*
X1023Y497D02*
X1030Y490D01*
X963Y497D02*
X1023D01*
X955Y490D02*
X963Y497D01*
X955Y450D02*
Y490D01*
X1030Y450D02*
Y490D01*
X1650Y500D02*
X1657Y493D01*
X1590Y500D02*
X1650D01*
X1583Y493D02*
X1590Y500D01*
X1583Y453D02*
Y493D01*
X1657Y453D02*
Y493D01*
X93Y714D02*
Y884D01*
Y374D02*
Y544D01*
X135Y285D02*
X870D01*
X93Y327D02*
X135Y285D01*
X93Y327D02*
Y374D01*
Y884D02*
Y1003D01*
X115Y1025D01*
X205D01*
X1030Y854D02*
X1110D01*
X1657Y783D02*
X1659Y785D01*
X1657Y547D02*
Y783D01*
X1517Y547D02*
X1583D01*
X1514Y545D02*
X1517Y547D01*
X1583Y372D02*
Y453D01*
X1581Y370D02*
X1583Y372D01*
X1581Y234D02*
X1685Y130D01*
X1581Y234D02*
Y370D01*
X1389Y300D02*
X1389Y300D01*
X1389Y300D02*
Y340D01*
Y380D01*
X1030Y544D02*
Y776D01*
X881Y544D02*
X955D01*
X880Y546D02*
X881Y544D01*
X905Y890D02*
X994D01*
X1030Y854D01*
X1240Y900D02*
X1286Y854D01*
X1575D01*
X1660D01*
X1715Y660D02*
X1760Y615D01*
X1034Y370D02*
Y382D01*
X1389Y340D02*
X1389Y340D01*
X1660Y854D02*
X1669Y845D01*
X1715D01*
X1785D01*
X1715Y660D02*
Y845D01*
X1904Y615D02*
Y694D01*
X1905Y695D01*
X1760Y615D02*
X1826D01*
X955Y80D02*
X959D01*
X1576Y375D02*
X1581Y370D01*
X1490Y375D02*
X1576D01*
D23*
X595Y410D02*
X835D01*
X488Y517D02*
X595Y410D01*
X850Y375D02*
X885Y410D01*
X575Y375D02*
X850D01*
X430Y520D02*
X575Y375D01*
X488Y517D02*
Y572D01*
X430Y630D02*
X488Y572D01*
X430Y630D02*
X430D01*
X430Y520D02*
Y521D01*
X130Y626D02*
X426D01*
X430Y630D01*
X221Y456D02*
X286Y521D01*
X430D01*
X130Y456D02*
X221D01*
D24*
X1849Y889D02*
D03*
X1909D02*
D03*
X1849Y839D02*
D03*
X1909D02*
D03*
X1849Y789D02*
D03*
X1909D02*
D03*
X1849Y739D02*
D03*
X1909D02*
D03*
X1849Y689D02*
D03*
D25*
X1909D02*
D03*
D26*
X374Y1122D02*
D03*
Y138D02*
D03*
D27*
X430Y412D02*
D03*
D28*
X318Y466D02*
D03*
X430Y521D02*
D03*
X318Y575D02*
D03*
X430Y630D02*
D03*
X318Y684D02*
D03*
X430Y739D02*
D03*
X318Y794D02*
D03*
X430Y848D02*
D03*
D29*
X1130Y580D02*
D03*
Y660D02*
D03*
X490Y850D02*
D03*
Y740D02*
D03*
X1445Y340D02*
D03*
Y255D02*
D03*
X1490Y300D02*
D03*
X240Y850D02*
D03*
X870Y285D02*
D03*
X905Y890D02*
D03*
X895Y830D02*
D03*
X1335Y130D02*
D03*
X1043D02*
D03*
X1240Y900D02*
D03*
X1685Y130D02*
D03*
X1680Y930D02*
D03*
X1720Y475D02*
D03*
Y85D02*
D03*
X791Y890D02*
D03*
X1785Y845D02*
D03*
X240Y575D02*
D03*
X1768Y689D02*
D03*
X955Y80D02*
D03*
X835Y410D02*
D03*
X885D02*
D03*
X1490Y375D02*
D03*
D30*
X167Y884D02*
D03*
X93D02*
D03*
X130Y966D02*
D03*
X167Y714D02*
D03*
X93D02*
D03*
X130Y796D02*
D03*
X167Y544D02*
D03*
X93D02*
D03*
X130Y626D02*
D03*
X167Y374D02*
D03*
X93D02*
D03*
X130Y456D02*
D03*
D31*
X1657Y453D02*
D03*
X1620D02*
D03*
X1583D02*
D03*
Y547D02*
D03*
X1657D02*
D03*
X1030Y450D02*
D03*
X993D02*
D03*
X955D02*
D03*
Y544D02*
D03*
X1030D02*
D03*
M02*
