%FSLAX23Y23*%
%MOIN*%
G70*
G01*
G75*
G04 Layer_Color=32896*
%ADD10R,0.059X0.055*%
%ADD11R,0.100X0.060*%
%ADD12R,0.055X0.059*%
%ADD13R,0.071X0.075*%
%ADD14R,0.055X0.016*%
%ADD15O,0.083X0.010*%
%ADD16O,0.010X0.083*%
%ADD17R,0.217X0.079*%
%ADD18R,0.010X0.055*%
%ADD19R,0.055X0.010*%
%ADD20R,0.163X0.163*%
%ADD21C,0.010*%
%ADD22C,0.020*%
%ADD23C,0.015*%
%ADD24O,0.050X0.040*%
%ADD25R,0.050X0.040*%
%ADD26C,0.187*%
%ADD27R,0.067X0.067*%
%ADD28C,0.067*%
%ADD29C,0.030*%
%ADD30R,0.024X0.051*%
%ADD31R,0.024X0.043*%
%ADD32C,0.024*%
%ADD33C,0.010*%
%ADD34C,0.008*%
%ADD35C,0.008*%
%ADD36C,0.006*%
%ADD37R,0.067X0.063*%
%ADD38R,0.108X0.068*%
%ADD39R,0.063X0.067*%
%ADD40R,0.079X0.083*%
%ADD41R,0.063X0.024*%
%ADD42O,0.091X0.018*%
%ADD43O,0.018X0.091*%
%ADD44R,0.225X0.087*%
%ADD45R,0.018X0.063*%
%ADD46R,0.063X0.018*%
%ADD47R,0.171X0.171*%
%ADD48O,0.058X0.048*%
%ADD49R,0.058X0.048*%
%ADD50C,0.195*%
%ADD51R,0.075X0.075*%
%ADD52C,0.075*%
%ADD53C,0.038*%
%ADD54R,0.032X0.059*%
%ADD55R,0.032X0.051*%
D21*
X1071Y620D02*
X1141D01*
D23*
X1820Y1195D02*
X1853D01*
X1870Y1178D01*
Y1112D01*
X1853Y1095D01*
X1820D01*
X1803Y1112D01*
Y1178D01*
X1820Y1195D01*
X1770D02*
X1703Y1095D01*
Y1195D02*
X1770Y1095D01*
X1670Y1195D02*
X1637D01*
X1653D01*
Y1095D01*
X1670D01*
X1637D01*
X1587D02*
Y1195D01*
X1553Y1162D01*
X1520Y1195D01*
Y1095D01*
X1420Y1195D02*
X1487D01*
Y1095D01*
X1420D01*
X1487Y1145D02*
X1453D01*
X1387Y1195D02*
X1320D01*
X1354D01*
Y1095D01*
X1220Y1195D02*
X1287D01*
Y1095D01*
X1220D01*
X1287Y1145D02*
X1254D01*
X1187Y1095D02*
Y1195D01*
X1137D01*
X1120Y1178D01*
Y1145D01*
X1137Y1128D01*
X1187D01*
X1154D02*
X1120Y1095D01*
X920D02*
X987D01*
X920Y1162D01*
Y1178D01*
X937Y1195D01*
X970D01*
X987Y1178D01*
X887D02*
X870Y1195D01*
X837D01*
X820Y1178D01*
Y1112D01*
X837Y1095D01*
X870D01*
X887Y1112D01*
Y1178D01*
X787Y1095D02*
X754D01*
X770D01*
Y1195D01*
X787Y1178D01*
X637Y1195D02*
X704D01*
Y1145D01*
X670Y1162D01*
X654D01*
X637Y1145D01*
Y1112D01*
X654Y1095D01*
X687D01*
X704Y1112D01*
X1585Y945D02*
Y1012D01*
X1552Y1045D01*
X1518Y1012D01*
Y945D01*
Y995D01*
X1585D01*
X1418Y1045D02*
X1485D01*
Y995D01*
X1452D01*
X1485D01*
Y945D01*
X1318Y1045D02*
X1385D01*
Y945D01*
X1318D01*
X1385Y995D02*
X1352D01*
X1235Y945D02*
Y1045D01*
X1285Y995D01*
X1218D01*
X1135Y945D02*
Y1045D01*
X1185Y995D01*
X1118D01*
X1085Y962D02*
X1069Y945D01*
X1035D01*
X1019Y962D01*
Y1028D01*
X1035Y1045D01*
X1069D01*
X1085Y1028D01*
Y1012D01*
X1069Y995D01*
X1019D01*
X985Y1028D02*
X969Y1045D01*
X935D01*
X919Y1028D01*
Y962D01*
X935Y945D01*
X969D01*
X985Y962D01*
Y1028D01*
D33*
X206Y884D02*
G03*
X206Y884I-5J0D01*
G01*
Y714D02*
G03*
X206Y714I-5J0D01*
G01*
Y544D02*
G03*
X206Y544I-5J0D01*
G01*
Y374D02*
G03*
X206Y374I-5J0D01*
G01*
X1696Y453D02*
G03*
X1696Y453I-5J0D01*
G01*
X1068Y450D02*
G03*
X1068Y450I-5J0D01*
G01*
D34*
X1865Y589D02*
Y641D01*
X1350Y274D02*
Y326D01*
X1350Y354D02*
Y406D01*
X1620Y344D02*
Y396D01*
Y674D02*
Y726D01*
Y594D02*
Y646D01*
X1554Y815D02*
X1606D01*
X1475Y519D02*
Y571D01*
X995Y344D02*
Y396D01*
X990Y594D02*
Y646D01*
Y674D02*
Y726D01*
X1084Y815D02*
X1136D01*
X854Y585D02*
X906D01*
X189Y925D02*
Y953D01*
X158D02*
X189D01*
X71Y925D02*
Y953D01*
X102D01*
X189Y755D02*
Y783D01*
X158D02*
X189D01*
X71Y755D02*
Y783D01*
X102D01*
X189Y585D02*
Y613D01*
X158D02*
X189D01*
X71Y585D02*
Y613D01*
X102D01*
X189Y415D02*
Y443D01*
X158D02*
X189D01*
X71Y415D02*
Y443D01*
X102D01*
X1634Y815D02*
X1686D01*
X1004D02*
X1056D01*
X1681Y490D02*
Y510D01*
X1559Y490D02*
Y510D01*
Y490D02*
X1681D01*
X1559Y510D02*
X1681D01*
X1054Y487D02*
Y507D01*
X932Y487D02*
Y507D01*
Y487D02*
X1054D01*
X932Y507D02*
X1054D01*
D35*
X1895Y533D02*
Y573D01*
X1875D01*
X1868Y566D01*
Y553D01*
X1875Y546D01*
X1895D01*
X1882D02*
X1868Y533D01*
X1855Y573D02*
X1828D01*
Y566D01*
X1855Y540D01*
Y533D01*
X1238Y318D02*
X1245Y325D01*
X1258D01*
X1265Y318D01*
Y292D01*
X1258Y285D01*
X1245D01*
X1238Y292D01*
X1225Y285D02*
X1212D01*
X1218D01*
Y325D01*
X1225Y318D01*
X1192Y325D02*
X1165D01*
Y318D01*
X1192Y292D01*
Y285D01*
X1238Y398D02*
X1245Y405D01*
X1258D01*
X1265Y398D01*
Y372D01*
X1258Y365D01*
X1245D01*
X1238Y372D01*
X1225Y365D02*
X1212D01*
X1218D01*
Y405D01*
X1225Y398D01*
X1192D02*
X1185Y405D01*
X1172D01*
X1165Y398D01*
Y392D01*
X1172Y385D01*
X1165Y378D01*
Y372D01*
X1172Y365D01*
X1185D01*
X1192Y372D01*
Y378D01*
X1185Y385D01*
X1192Y392D01*
Y398D01*
X1185Y385D02*
X1172D01*
X1768Y383D02*
X1775Y390D01*
X1788D01*
X1795Y383D01*
Y357D01*
X1788Y350D01*
X1775D01*
X1768Y357D01*
X1728Y350D02*
X1755D01*
X1728Y377D01*
Y383D01*
X1735Y390D01*
X1748D01*
X1755Y383D01*
X1715Y350D02*
X1702D01*
X1708D01*
Y390D01*
X1715Y383D01*
X1508Y713D02*
X1515Y720D01*
X1528D01*
X1535Y713D01*
Y687D01*
X1528Y680D01*
X1515D01*
X1508Y687D01*
X1468Y680D02*
X1495D01*
X1468Y707D01*
Y713D01*
X1475Y720D01*
X1488D01*
X1495Y713D01*
X1428Y680D02*
X1455D01*
X1428Y707D01*
Y713D01*
X1435Y720D01*
X1448D01*
X1455Y713D01*
X1508Y638D02*
X1515Y645D01*
X1528D01*
X1535Y638D01*
Y612D01*
X1528Y605D01*
X1515D01*
X1508Y612D01*
X1468Y605D02*
X1495D01*
X1468Y632D01*
Y638D01*
X1475Y645D01*
X1488D01*
X1495Y638D01*
X1455D02*
X1448Y645D01*
X1435D01*
X1428Y638D01*
Y632D01*
X1435Y625D01*
X1442D01*
X1435D01*
X1428Y618D01*
Y612D01*
X1435Y605D01*
X1448D01*
X1455Y612D01*
X1528Y792D02*
X1535Y785D01*
Y772D01*
X1528Y765D01*
X1502D01*
X1495Y772D01*
Y785D01*
X1502Y792D01*
X1495Y832D02*
Y805D01*
X1522Y832D01*
X1528D01*
X1535Y825D01*
Y812D01*
X1528Y805D01*
X1495Y865D02*
X1535D01*
X1515Y845D01*
Y872D01*
X1363Y558D02*
X1370Y565D01*
X1383D01*
X1390Y558D01*
Y532D01*
X1383Y525D01*
X1370D01*
X1363Y532D01*
X1323Y525D02*
X1350D01*
X1323Y552D01*
Y558D01*
X1330Y565D01*
X1343D01*
X1350Y558D01*
X1283Y565D02*
X1310D01*
Y545D01*
X1297Y552D01*
X1290D01*
X1283Y545D01*
Y532D01*
X1290Y525D01*
X1303D01*
X1310Y532D01*
X888Y378D02*
X895Y385D01*
X908D01*
X915Y378D01*
Y352D01*
X908Y345D01*
X895D01*
X888Y352D01*
X848Y345D02*
X875D01*
X848Y372D01*
Y378D01*
X855Y385D01*
X868D01*
X875Y378D01*
X808Y385D02*
X822Y378D01*
X835Y365D01*
Y352D01*
X828Y345D01*
X815D01*
X808Y352D01*
Y358D01*
X815Y365D01*
X835D01*
X1232Y630D02*
X1239Y637D01*
X1252D01*
X1259Y630D01*
Y604D01*
X1252Y597D01*
X1239D01*
X1232Y604D01*
X1192Y597D02*
X1219D01*
X1192Y624D01*
Y630D01*
X1199Y637D01*
X1212D01*
X1219Y630D01*
X1179Y637D02*
X1152D01*
Y630D01*
X1179Y604D01*
Y597D01*
X883Y718D02*
X890Y725D01*
X903D01*
X910Y718D01*
Y692D01*
X903Y685D01*
X890D01*
X883Y692D01*
X843Y685D02*
X870D01*
X843Y712D01*
Y718D01*
X850Y725D01*
X863D01*
X870Y718D01*
X830D02*
X823Y725D01*
X810D01*
X803Y718D01*
Y712D01*
X810Y705D01*
X803Y698D01*
Y692D01*
X810Y685D01*
X823D01*
X830Y692D01*
Y698D01*
X823Y705D01*
X830Y712D01*
Y718D01*
X823Y705D02*
X810D01*
X1188Y787D02*
X1195Y780D01*
Y767D01*
X1188Y760D01*
X1162D01*
X1155Y767D01*
Y780D01*
X1162Y787D01*
X1155Y827D02*
Y800D01*
X1182Y827D01*
X1188D01*
X1195Y820D01*
Y807D01*
X1188Y800D01*
X1162Y840D02*
X1155Y847D01*
Y860D01*
X1162Y867D01*
X1188D01*
X1195Y860D01*
Y847D01*
X1188Y840D01*
X1182D01*
X1175Y847D01*
Y867D01*
X823Y567D02*
X830Y560D01*
Y547D01*
X823Y540D01*
X797D01*
X790Y547D01*
Y560D01*
X797Y567D01*
X823Y580D02*
X830Y587D01*
Y600D01*
X823Y607D01*
X817D01*
X810Y600D01*
Y593D01*
Y600D01*
X803Y607D01*
X797D01*
X790Y600D01*
Y587D01*
X797Y580D01*
X823Y620D02*
X830Y627D01*
Y640D01*
X823Y647D01*
X797D01*
X790Y640D01*
Y627D01*
X797Y620D01*
X823D01*
X55Y910D02*
X15D01*
Y930D01*
X22Y937D01*
X48D01*
X55Y930D01*
Y910D01*
X15Y950D02*
Y963D01*
Y957D01*
X55D01*
X48Y950D01*
X55Y720D02*
X15D01*
Y740D01*
X22Y747D01*
X48D01*
X55Y740D01*
Y720D01*
X15Y787D02*
Y760D01*
X42Y787D01*
X48D01*
X55Y780D01*
Y767D01*
X48Y760D01*
X55Y555D02*
X15D01*
Y575D01*
X22Y582D01*
X48D01*
X55Y575D01*
Y555D01*
X48Y595D02*
X55Y602D01*
Y615D01*
X48Y622D01*
X42D01*
X35Y615D01*
Y608D01*
Y615D01*
X28Y622D01*
X22D01*
X15Y615D01*
Y602D01*
X22Y595D01*
X55Y385D02*
X15D01*
Y405D01*
X22Y412D01*
X48D01*
X55Y405D01*
Y385D01*
X15Y445D02*
X55D01*
X35Y425D01*
Y452D01*
X1745Y780D02*
X1705D01*
Y807D01*
Y847D02*
Y820D01*
X1732Y847D01*
X1738D01*
X1745Y840D01*
Y827D01*
X1738Y820D01*
X985Y785D02*
X945D01*
Y812D01*
X978Y825D02*
X985Y832D01*
Y845D01*
X978Y852D01*
X972D01*
X965Y845D01*
Y838D01*
Y845D01*
X958Y852D01*
X952D01*
X945Y845D01*
Y832D01*
X952Y825D01*
X1535Y490D02*
Y457D01*
X1528Y450D01*
X1515D01*
X1508Y457D01*
Y490D01*
X1495Y483D02*
X1488Y490D01*
X1475D01*
X1468Y483D01*
Y477D01*
X1475Y470D01*
X1482D01*
X1475D01*
X1468Y463D01*
Y457D01*
X1475Y450D01*
X1488D01*
X1495Y457D01*
X910Y495D02*
Y462D01*
X903Y455D01*
X890D01*
X883Y462D01*
Y495D01*
X850Y455D02*
Y495D01*
X870Y475D01*
X843D01*
M02*
