%FSLAX23Y23*%
%MOIN*%
G70*
G01*
G75*
G04 Layer_Physical_Order=1*
G04 Layer_Color=255*
%ADD10R,0.059X0.055*%
%ADD11R,0.100X0.060*%
%ADD12R,0.055X0.059*%
%ADD13R,0.071X0.075*%
%ADD14R,0.055X0.016*%
%ADD15O,0.083X0.010*%
%ADD16O,0.010X0.083*%
%ADD17R,0.217X0.079*%
%ADD18R,0.010X0.055*%
%ADD19R,0.055X0.010*%
%ADD20R,0.163X0.163*%
%ADD21C,0.010*%
%ADD22C,0.020*%
%ADD23C,0.015*%
%ADD24O,0.050X0.040*%
%ADD25R,0.050X0.040*%
%ADD26C,0.187*%
%ADD27R,0.067X0.067*%
%ADD28C,0.067*%
%ADD29C,0.030*%
G36*
X1958Y30D02*
X10D01*
Y1230D01*
X1958D01*
Y30D01*
D02*
G37*
%LPC*%
G36*
X469Y451D02*
X391D01*
Y373D01*
X469D01*
Y451D01*
D02*
G37*
G36*
X318Y506D02*
X308Y505D01*
X298Y501D01*
X290Y494D01*
X284Y486D01*
X280Y477D01*
X279Y466D01*
X280Y456D01*
X284Y447D01*
X290Y438D01*
X298Y432D01*
X308Y428D01*
X318Y427D01*
X328Y428D01*
X338Y432D01*
X346Y438D01*
X352Y447D01*
X356Y456D01*
X358Y466D01*
X356Y477D01*
X352Y486D01*
X346Y494D01*
X338Y501D01*
X328Y505D01*
X318Y506D01*
D02*
G37*
G36*
X881Y518D02*
X840D01*
Y494D01*
X839Y492D01*
Y435D01*
X835Y431D01*
X835Y431D01*
X827Y430D01*
X820Y425D01*
X815Y418D01*
X814Y410D01*
X815Y402D01*
X820Y395D01*
X827Y390D01*
X835Y389D01*
X843Y390D01*
X850Y395D01*
X855Y402D01*
X856Y410D01*
X856Y411D01*
X857Y413D01*
X863Y413D01*
X864Y412D01*
X864Y410D01*
X865Y402D01*
X870Y395D01*
X877Y390D01*
X885Y389D01*
X893Y390D01*
X900Y395D01*
X905Y402D01*
X906Y410D01*
X905Y418D01*
X900Y425D01*
X893Y430D01*
X885Y431D01*
X881Y434D01*
Y492D01*
X881Y494D01*
Y518D01*
D02*
G37*
G36*
X706Y562D02*
X702Y561D01*
X698Y559D01*
X698Y559D01*
X687Y548D01*
X685Y544D01*
X684Y540D01*
X684Y540D01*
Y450D01*
X665Y431D01*
X653D01*
Y451D01*
X586D01*
Y379D01*
X586D01*
Y376D01*
X586D01*
Y304D01*
X653D01*
Y376D01*
X653D01*
Y379D01*
X653D01*
Y409D01*
X670D01*
X670Y409D01*
X674Y410D01*
X678Y412D01*
X703Y437D01*
X703Y437D01*
X705Y441D01*
X706Y445D01*
Y519D01*
X711Y520D01*
X711Y520D01*
Y520D01*
X711Y520D01*
X773D01*
X773D01*
X774Y520D01*
X775Y520D01*
X776Y520D01*
X777Y520D01*
X778Y519D01*
X778Y519D01*
X779Y519D01*
X779Y519D01*
X779Y519D01*
Y519D01*
X779D01*
X779Y519D01*
X779Y519D01*
X779Y518D01*
X779Y518D01*
X780Y517D01*
X780Y516D01*
X780Y515D01*
X780Y514D01*
X780Y513D01*
Y513D01*
Y494D01*
X780Y492D01*
Y399D01*
X780Y399D01*
X781Y394D01*
X783Y391D01*
X812Y362D01*
X812Y362D01*
X816Y360D01*
X820Y359D01*
X922D01*
Y334D01*
X939D01*
Y321D01*
X922D01*
Y301D01*
X883D01*
X878Y305D01*
X870Y306D01*
X862Y305D01*
X855Y300D01*
X850Y293D01*
X849Y285D01*
X850Y277D01*
X855Y270D01*
X862Y265D01*
X870Y264D01*
X878Y265D01*
X883Y269D01*
X919D01*
X922Y265D01*
Y249D01*
X919Y248D01*
X919D01*
Y181D01*
X991D01*
Y248D01*
X991D01*
X989Y249D01*
Y321D01*
X972D01*
Y334D01*
X989D01*
Y406D01*
X972D01*
Y406D01*
X971Y413D01*
X967Y418D01*
X939Y446D01*
X940Y451D01*
X940D01*
Y518D01*
X899D01*
Y451D01*
X904D01*
Y442D01*
X905Y436D01*
X908Y430D01*
X929Y410D01*
X927Y406D01*
X922D01*
Y381D01*
X825D01*
X803Y403D01*
Y492D01*
X802Y494D01*
Y518D01*
X785D01*
X785D01*
X784Y518D01*
X783Y518D01*
X783Y518D01*
X782Y518D01*
X780Y519D01*
X780Y519D01*
X780Y519D01*
X779Y519D01*
X779Y519D01*
X779D01*
X779Y519D01*
X779Y520D01*
X779Y520D01*
X779Y520D01*
X778Y522D01*
X778Y523D01*
X778Y523D01*
X778Y524D01*
X778Y525D01*
Y525D01*
Y540D01*
Y562D01*
X754D01*
X752Y562D01*
X706D01*
X706Y562D01*
D02*
G37*
G36*
X1185Y325D02*
X1114D01*
Y258D01*
X1136D01*
Y242D01*
X1114D01*
Y175D01*
X1185D01*
Y242D01*
X1163D01*
Y258D01*
X1185D01*
Y325D01*
D02*
G37*
G36*
X1276D02*
X1205D01*
Y258D01*
X1226D01*
Y244D01*
X1205D01*
Y177D01*
X1276D01*
Y244D01*
X1254D01*
Y258D01*
X1276D01*
Y325D01*
D02*
G37*
G36*
X1663Y341D02*
X1596D01*
Y269D01*
X1663D01*
Y286D01*
X1668Y288D01*
X1685Y270D01*
X1685Y270D01*
X1685Y264D01*
X1685Y264D01*
X1668Y247D01*
X1663Y249D01*
Y261D01*
X1596D01*
Y189D01*
X1663D01*
Y215D01*
X1668D01*
X1674Y216D01*
X1678Y219D01*
X1698Y238D01*
X1700Y238D01*
X1701Y233D01*
X1675Y207D01*
X1672Y202D01*
X1671Y197D01*
Y146D01*
X1670Y145D01*
X1665Y138D01*
X1664Y132D01*
X1628Y96D01*
X971D01*
Y102D01*
X991D01*
Y169D01*
X919D01*
Y147D01*
X908D01*
Y164D01*
X796D01*
Y92D01*
X908D01*
Y114D01*
X919D01*
Y102D01*
X939D01*
Y93D01*
X935Y88D01*
X934Y80D01*
X935Y72D01*
X940Y65D01*
X947Y60D01*
X955Y59D01*
X963Y60D01*
X968Y64D01*
X1635D01*
X1641Y65D01*
X1647Y68D01*
X1687Y109D01*
X1693Y110D01*
X1700Y115D01*
X1705Y122D01*
X1706Y130D01*
X1705Y138D01*
X1700Y145D01*
X1699Y146D01*
Y191D01*
X1721Y213D01*
X1725Y215D01*
X1725Y215D01*
Y215D01*
X1725Y215D01*
X1792D01*
Y241D01*
Y266D01*
Y292D01*
Y319D01*
X1725D01*
Y294D01*
X1701D01*
X1682Y313D01*
X1677Y316D01*
X1672Y317D01*
X1663D01*
Y341D01*
D02*
G37*
G36*
X430Y560D02*
X420Y559D01*
X410Y555D01*
X402Y549D01*
X396Y541D01*
X392Y531D01*
X390Y521D01*
X392Y511D01*
X396Y501D01*
X402Y493D01*
X410Y487D01*
X420Y483D01*
X430Y481D01*
X440Y483D01*
X450Y487D01*
X458Y493D01*
X464Y501D01*
X468Y511D01*
X470Y521D01*
X468Y531D01*
X464Y541D01*
X458Y549D01*
X450Y555D01*
X440Y559D01*
X430Y560D01*
D02*
G37*
G36*
X1333Y1036D02*
X1266D01*
Y964D01*
X1306D01*
Y911D01*
X1258D01*
X1255Y915D01*
X1248Y920D01*
X1240Y921D01*
X1232Y920D01*
X1225Y915D01*
X1224Y914D01*
X1191D01*
X1185Y913D01*
X1184Y912D01*
X1181Y910D01*
X1181Y910D01*
X1158Y887D01*
X1108D01*
Y854D01*
X1026D01*
Y874D01*
X954D01*
Y807D01*
X957D01*
Y748D01*
X958Y746D01*
Y722D01*
X975D01*
X975D01*
X976Y722D01*
X977Y722D01*
X977Y722D01*
X978Y722D01*
X980Y721D01*
X980Y721D01*
X980Y721D01*
X981Y721D01*
X981Y721D01*
Y721D01*
X981D01*
X981Y721D01*
X981Y720D01*
X981Y720D01*
X981Y720D01*
X982Y718D01*
X982Y717D01*
X982Y717D01*
X982Y716D01*
X982Y715D01*
Y715D01*
Y698D01*
Y678D01*
Y658D01*
Y639D01*
Y619D01*
Y599D01*
Y580D01*
Y560D01*
Y540D01*
Y525D01*
Y525D01*
X982Y524D01*
X982Y523D01*
X982Y523D01*
X982Y522D01*
X981Y520D01*
X981Y520D01*
X981Y520D01*
X981Y519D01*
X981Y519D01*
X981D01*
Y519D01*
X981Y519D01*
X980Y519D01*
X980Y519D01*
X980Y519D01*
X978Y518D01*
X977Y518D01*
X977Y518D01*
X976Y518D01*
X975Y518D01*
X975D01*
X958D01*
Y494D01*
X957Y492D01*
Y476D01*
X958Y475D01*
Y451D01*
X980D01*
Y465D01*
X1154D01*
X1154Y465D01*
X1158Y466D01*
X1161Y468D01*
X1213Y520D01*
X1245D01*
X1245Y520D01*
X1281D01*
X1285Y521D01*
X1289Y523D01*
X1291Y527D01*
X1292Y531D01*
X1291Y536D01*
X1290Y538D01*
X1289Y541D01*
X1290Y545D01*
X1291Y547D01*
X1292Y551D01*
X1291Y555D01*
X1290Y557D01*
X1289Y561D01*
X1290Y564D01*
X1291Y566D01*
X1292Y571D01*
X1291Y575D01*
X1290Y577D01*
X1289Y581D01*
X1290Y584D01*
X1291Y586D01*
X1292Y590D01*
X1291Y595D01*
X1290Y597D01*
X1289Y600D01*
X1290Y604D01*
X1291Y606D01*
X1292Y610D01*
X1291Y614D01*
X1290Y617D01*
X1289Y620D01*
X1290Y623D01*
X1291Y626D01*
X1292Y630D01*
X1291Y634D01*
X1290Y636D01*
X1289Y640D01*
X1290Y643D01*
X1291Y645D01*
X1292Y649D01*
X1291Y654D01*
X1290Y656D01*
X1289Y659D01*
X1290Y663D01*
X1291Y665D01*
X1292Y669D01*
X1291Y673D01*
X1290Y676D01*
X1289Y679D01*
X1290Y682D01*
X1291Y685D01*
X1292Y689D01*
X1291Y693D01*
X1290Y695D01*
X1289Y699D01*
X1290Y702D01*
X1291Y704D01*
X1292Y709D01*
X1291Y713D01*
X1290Y715D01*
X1289Y718D01*
X1290Y722D01*
X1291Y724D01*
X1292Y728D01*
X1291Y732D01*
X1290Y735D01*
X1289Y738D01*
X1290Y741D01*
X1291Y744D01*
X1292Y748D01*
X1291Y752D01*
X1290Y754D01*
X1289Y758D01*
X1290Y761D01*
X1291Y763D01*
X1292Y768D01*
X1291Y772D01*
X1290Y774D01*
X1289Y777D01*
X1290Y781D01*
X1291Y783D01*
X1292Y787D01*
X1291Y792D01*
X1290Y794D01*
X1289Y797D01*
X1290Y801D01*
X1291Y803D01*
X1292Y807D01*
X1291Y811D01*
X1290Y813D01*
X1289Y817D01*
X1290Y820D01*
X1291Y822D01*
X1292Y827D01*
X1291Y831D01*
X1289Y835D01*
X1285Y837D01*
X1281Y838D01*
X1208D01*
X1204Y837D01*
X1200Y835D01*
X1198Y831D01*
X1197Y827D01*
X1198Y822D01*
X1199Y820D01*
X1200Y817D01*
X1199Y813D01*
X1198Y811D01*
X1197Y807D01*
X1198Y803D01*
X1199Y801D01*
X1200Y797D01*
X1199Y794D01*
X1198Y792D01*
X1197Y787D01*
X1198Y784D01*
X1196Y781D01*
X1195Y779D01*
X1180D01*
Y808D01*
X1108D01*
Y756D01*
X1054Y702D01*
X1049Y704D01*
Y720D01*
X987D01*
X987D01*
X986Y720D01*
X985Y720D01*
X984Y720D01*
X983Y720D01*
X982Y721D01*
X982Y721D01*
X981Y721D01*
X981Y721D01*
X981Y721D01*
X981D01*
X981Y721D01*
X981Y721D01*
X981Y722D01*
X981Y722D01*
X980Y723D01*
X980Y724D01*
X980Y725D01*
X980Y726D01*
X980Y727D01*
Y727D01*
Y746D01*
X980Y748D01*
Y807D01*
X1026D01*
Y827D01*
X1108D01*
Y820D01*
X1180D01*
Y869D01*
X1196Y886D01*
X1224D01*
X1225Y885D01*
X1232Y880D01*
X1240Y879D01*
X1248Y880D01*
X1255Y885D01*
X1257Y888D01*
X1306D01*
Y843D01*
X1306Y843D01*
X1307Y838D01*
X1309Y835D01*
X1347Y798D01*
Y531D01*
X1347Y530D01*
X1347Y530D01*
Y508D01*
X1342Y505D01*
X1341Y505D01*
X1337Y506D01*
X1333Y505D01*
X1331Y504D01*
X1327Y503D01*
X1324Y504D01*
X1322Y505D01*
X1317Y506D01*
X1313Y505D01*
X1309Y503D01*
X1307Y499D01*
X1306Y495D01*
Y470D01*
X1238D01*
X1234Y469D01*
X1230Y466D01*
X1230Y466D01*
X1167Y404D01*
X1114D01*
Y337D01*
X1185D01*
Y390D01*
X1200Y405D01*
X1203Y403D01*
X1204Y403D01*
X1204Y402D01*
X1205Y402D01*
Y402D01*
Y401D01*
X1205Y399D01*
Y399D01*
Y399D01*
Y337D01*
X1276D01*
Y359D01*
X1311D01*
X1311Y359D01*
X1315Y360D01*
X1319Y362D01*
X1337Y380D01*
X1342Y378D01*
X1342Y378D01*
X1331Y366D01*
X1328Y363D01*
X1327Y358D01*
X1327Y358D01*
Y325D01*
X1299D01*
Y258D01*
X1370D01*
Y325D01*
X1350D01*
Y354D01*
X1365Y368D01*
X1365Y368D01*
X1367Y372D01*
X1368Y376D01*
X1368Y376D01*
Y455D01*
X1368Y455D01*
X1369Y460D01*
X1369Y460D01*
Y520D01*
X1530D01*
X1539Y511D01*
X1538Y506D01*
X1537Y505D01*
X1534Y506D01*
X1530Y505D01*
X1527Y504D01*
X1524Y503D01*
X1521Y504D01*
X1518Y505D01*
X1514Y506D01*
X1510Y505D01*
X1508Y504D01*
X1504Y503D01*
X1501Y504D01*
X1499Y505D01*
X1495Y506D01*
X1490Y505D01*
X1488Y504D01*
X1485Y503D01*
X1481Y504D01*
X1479Y505D01*
X1475Y506D01*
X1471Y505D01*
X1468Y504D01*
X1465Y503D01*
X1462Y504D01*
X1459Y505D01*
X1455Y506D01*
X1451Y505D01*
X1449Y504D01*
X1445Y503D01*
X1442Y504D01*
X1440Y505D01*
X1435Y506D01*
X1431Y505D01*
X1429Y504D01*
X1426Y503D01*
X1422Y504D01*
X1420Y505D01*
X1416Y506D01*
X1412Y505D01*
X1409Y504D01*
X1406Y503D01*
X1403Y504D01*
X1400Y505D01*
X1396Y506D01*
X1392Y505D01*
X1388Y503D01*
X1386Y499D01*
X1385Y495D01*
Y459D01*
X1385Y459D01*
Y304D01*
X1385Y304D01*
X1386Y300D01*
X1388Y296D01*
X1425Y260D01*
X1424Y255D01*
X1425Y247D01*
X1430Y240D01*
X1437Y235D01*
X1445Y234D01*
X1453Y235D01*
X1460Y240D01*
X1465Y247D01*
X1466Y255D01*
X1466Y256D01*
X1471Y258D01*
X1509Y220D01*
X1509Y220D01*
X1512Y218D01*
X1517Y217D01*
X1517D01*
Y189D01*
X1584D01*
Y261D01*
X1517D01*
Y250D01*
X1512Y248D01*
X1487Y274D01*
X1489Y279D01*
X1490Y279D01*
X1498Y280D01*
X1505Y285D01*
X1508Y289D01*
X1517D01*
Y269D01*
X1584D01*
Y341D01*
X1517D01*
Y311D01*
X1508D01*
X1505Y315D01*
X1498Y320D01*
X1490Y321D01*
X1482Y320D01*
X1475Y315D01*
X1470Y308D01*
X1469Y300D01*
X1469Y299D01*
X1464Y297D01*
X1447Y314D01*
X1449Y319D01*
X1453Y320D01*
X1460Y325D01*
X1465Y332D01*
X1466Y340D01*
X1465Y348D01*
X1460Y355D01*
X1456Y358D01*
Y386D01*
X1461Y388D01*
X1470Y380D01*
X1469Y375D01*
X1471Y367D01*
X1475Y360D01*
X1482Y355D01*
X1490Y354D01*
X1499Y355D01*
X1506Y360D01*
X1510Y367D01*
X1511Y370D01*
X1511Y371D01*
X1512Y375D01*
X1511Y379D01*
X1511Y380D01*
X1510Y383D01*
X1506Y390D01*
X1499Y395D01*
X1490Y396D01*
X1486Y395D01*
X1475Y406D01*
X1477Y411D01*
X1479Y412D01*
X1481Y413D01*
X1485Y414D01*
X1488Y413D01*
X1490Y412D01*
X1495Y411D01*
X1499Y412D01*
X1501Y413D01*
X1504Y414D01*
X1508Y413D01*
X1510Y412D01*
X1514Y411D01*
X1518Y412D01*
X1521Y413D01*
X1524Y414D01*
X1527Y413D01*
X1530Y412D01*
X1534Y411D01*
X1538Y412D01*
X1540Y413D01*
X1544Y414D01*
X1547Y413D01*
X1549Y412D01*
X1554Y411D01*
X1558Y412D01*
X1560Y413D01*
X1563Y414D01*
X1567Y413D01*
X1569Y412D01*
X1573Y411D01*
X1578Y412D01*
X1581Y414D01*
X1584Y418D01*
X1584Y422D01*
Y458D01*
X1584Y459D01*
X1584Y459D01*
Y495D01*
X1584Y499D01*
X1581Y503D01*
X1578Y505D01*
X1573Y506D01*
X1570Y505D01*
X1567Y507D01*
X1565Y508D01*
Y512D01*
X1565Y512D01*
X1564Y517D01*
X1562Y520D01*
X1562Y520D01*
X1543Y539D01*
X1539Y541D01*
X1535Y542D01*
X1535Y542D01*
X1369D01*
Y802D01*
X1369Y802D01*
X1368Y807D01*
X1366Y810D01*
X1366Y810D01*
X1329Y847D01*
Y899D01*
Y964D01*
X1333D01*
Y1036D01*
D02*
G37*
G36*
X1914Y915D02*
X1904D01*
X1898Y914D01*
X1891Y912D01*
X1886Y908D01*
X1882Y903D01*
X1879Y902D01*
X1877Y903D01*
X1873Y908D01*
X1867Y912D01*
X1861Y914D01*
X1854Y915D01*
X1844D01*
X1838Y914D01*
X1831Y912D01*
X1826Y908D01*
X1822Y902D01*
X1819Y896D01*
X1818Y889D01*
X1819Y882D01*
X1822Y876D01*
X1826Y870D01*
X1831Y867D01*
X1831Y864D01*
X1831Y861D01*
X1826Y858D01*
X1822Y852D01*
X1819Y846D01*
X1818Y839D01*
X1819Y832D01*
X1822Y826D01*
X1826Y820D01*
X1831Y817D01*
X1831Y814D01*
X1831Y811D01*
X1826Y808D01*
X1822Y802D01*
X1819Y796D01*
X1818Y789D01*
X1819Y782D01*
X1822Y776D01*
X1826Y770D01*
X1831Y767D01*
X1831Y764D01*
X1831Y761D01*
X1826Y758D01*
X1822Y752D01*
X1821Y750D01*
X1818D01*
X1818Y750D01*
X1814Y749D01*
X1810Y747D01*
X1810Y747D01*
X1796Y733D01*
X1794Y729D01*
X1793Y725D01*
X1793Y725D01*
Y701D01*
X1792Y700D01*
X1785Y702D01*
X1784Y704D01*
X1777Y709D01*
X1768Y710D01*
X1760Y709D01*
X1753Y704D01*
X1751Y700D01*
X1735D01*
X1734Y702D01*
X1732Y705D01*
X1733Y709D01*
X1732Y713D01*
X1731Y715D01*
X1730Y718D01*
X1731Y722D01*
X1732Y724D01*
X1733Y728D01*
X1732Y732D01*
X1731Y735D01*
X1730Y738D01*
X1731Y741D01*
X1732Y744D01*
X1733Y748D01*
X1732Y752D01*
X1731Y754D01*
X1730Y758D01*
X1731Y761D01*
X1732Y763D01*
X1733Y768D01*
X1732Y771D01*
X1732Y772D01*
X1735Y777D01*
X1737Y777D01*
X1740Y779D01*
X1785Y824D01*
X1785Y824D01*
X1793Y825D01*
X1800Y830D01*
X1805Y837D01*
X1806Y845D01*
X1805Y853D01*
X1800Y860D01*
X1793Y865D01*
X1785Y866D01*
X1777Y865D01*
X1770Y860D01*
X1765Y853D01*
X1764Y845D01*
X1765Y837D01*
X1766Y836D01*
X1728Y798D01*
X1685D01*
X1685Y798D01*
X1649D01*
X1645Y798D01*
X1641Y795D01*
X1639Y792D01*
X1638Y787D01*
X1639Y783D01*
X1640Y781D01*
X1641Y777D01*
X1640Y774D01*
X1639Y772D01*
X1638Y768D01*
X1639Y763D01*
X1640Y761D01*
X1641Y758D01*
X1640Y754D01*
X1639Y752D01*
X1638Y748D01*
X1639Y744D01*
X1640Y741D01*
X1641Y738D01*
X1640Y735D01*
X1639Y732D01*
X1638Y728D01*
X1639Y724D01*
X1640Y722D01*
X1641Y718D01*
X1640Y715D01*
X1639Y713D01*
X1638Y709D01*
X1639Y704D01*
X1640Y702D01*
X1641Y699D01*
X1640Y695D01*
X1639Y693D01*
X1638Y689D01*
X1639Y685D01*
X1640Y682D01*
X1641Y679D01*
X1640Y676D01*
X1639Y673D01*
X1638Y669D01*
X1639Y665D01*
X1640Y663D01*
X1641Y659D01*
X1640Y656D01*
X1639Y654D01*
X1638Y649D01*
X1639Y645D01*
X1640Y643D01*
X1641Y640D01*
X1640Y636D01*
X1639Y634D01*
X1638Y630D01*
X1639Y626D01*
X1640Y623D01*
X1641Y620D01*
X1640Y617D01*
X1639Y614D01*
X1638Y610D01*
X1639Y606D01*
X1640Y604D01*
X1641Y600D01*
X1640Y597D01*
X1639Y595D01*
X1638Y590D01*
X1639Y586D01*
X1640Y584D01*
X1641Y581D01*
X1640Y577D01*
X1639Y575D01*
X1638Y571D01*
X1639Y566D01*
X1640Y564D01*
X1641Y561D01*
X1640Y557D01*
X1639Y555D01*
X1638Y551D01*
X1639Y547D01*
X1640Y545D01*
X1641Y541D01*
X1640Y538D01*
X1639Y536D01*
X1638Y531D01*
X1639Y527D01*
X1641Y523D01*
X1645Y521D01*
X1649Y520D01*
X1685D01*
X1685Y520D01*
X1762D01*
Y504D01*
X1829D01*
Y576D01*
X1762D01*
Y543D01*
X1735D01*
X1734Y545D01*
X1732Y548D01*
X1733Y551D01*
X1732Y555D01*
X1731Y557D01*
X1730Y561D01*
X1731Y564D01*
X1732Y566D01*
X1733Y571D01*
X1732Y575D01*
X1731Y577D01*
X1730Y581D01*
X1731Y584D01*
X1732Y586D01*
X1733Y590D01*
X1732Y595D01*
X1731Y597D01*
X1730Y600D01*
X1731Y604D01*
X1732Y606D01*
X1733Y610D01*
X1732Y614D01*
X1734Y616D01*
X1735Y619D01*
X1773D01*
X1773Y619D01*
X1778Y619D01*
X1781Y622D01*
X1812Y653D01*
X1812Y653D01*
X1814Y656D01*
X1815Y660D01*
X1815Y660D01*
Y678D01*
X1820Y679D01*
X1822Y676D01*
X1826Y670D01*
X1831Y666D01*
X1838Y664D01*
X1844Y663D01*
X1854D01*
X1861Y664D01*
X1867Y666D01*
X1873Y670D01*
X1873Y671D01*
X1878Y669D01*
Y663D01*
X1940D01*
Y715D01*
X1878D01*
Y709D01*
X1873Y707D01*
X1873Y708D01*
X1868Y711D01*
X1868Y714D01*
X1868Y717D01*
X1873Y720D01*
X1877Y726D01*
X1880Y732D01*
X1881Y739D01*
X1880Y746D01*
X1877Y752D01*
X1873Y758D01*
X1868Y761D01*
X1868Y764D01*
X1868Y767D01*
X1873Y770D01*
X1877Y776D01*
X1880Y782D01*
X1881Y789D01*
X1880Y796D01*
X1877Y802D01*
X1873Y808D01*
X1868Y811D01*
X1868Y814D01*
X1868Y817D01*
X1873Y820D01*
X1877Y825D01*
X1879Y826D01*
X1882Y825D01*
X1886Y820D01*
X1891Y816D01*
X1898Y814D01*
X1904Y813D01*
X1914D01*
X1921Y814D01*
X1927Y816D01*
X1933Y820D01*
X1937Y826D01*
X1940Y832D01*
X1941Y839D01*
X1940Y846D01*
X1937Y852D01*
X1933Y858D01*
X1928Y861D01*
X1928Y864D01*
X1928Y867D01*
X1933Y870D01*
X1937Y876D01*
X1940Y882D01*
X1941Y889D01*
X1940Y896D01*
X1937Y902D01*
X1933Y908D01*
X1927Y912D01*
X1921Y914D01*
X1914Y915D01*
D02*
G37*
G36*
X1924Y1185D02*
X1696D01*
Y1095D01*
X1747D01*
Y1041D01*
X1727D01*
Y1019D01*
X1703D01*
Y1041D01*
X1636D01*
Y969D01*
X1703D01*
Y991D01*
X1727D01*
Y969D01*
X1729D01*
Y845D01*
X1722Y838D01*
X1685D01*
X1685Y838D01*
X1649D01*
X1645Y837D01*
X1642Y841D01*
X1688Y887D01*
X1688Y887D01*
X1690Y891D01*
X1691Y895D01*
Y912D01*
X1695Y915D01*
X1700Y922D01*
X1701Y930D01*
X1700Y938D01*
X1695Y945D01*
X1688Y950D01*
X1680Y951D01*
X1672Y950D01*
X1665Y945D01*
X1660Y938D01*
X1659Y930D01*
X1660Y922D01*
X1665Y915D01*
X1669Y912D01*
Y900D01*
X1628Y859D01*
X1623Y861D01*
X1624Y863D01*
Y899D01*
X1624Y899D01*
Y969D01*
X1624D01*
Y1041D01*
X1557D01*
Y1019D01*
X1533D01*
Y1041D01*
X1513D01*
Y1095D01*
X1550D01*
Y1185D01*
X1322D01*
Y1095D01*
X1486D01*
Y1041D01*
X1466D01*
Y969D01*
X1533D01*
Y991D01*
X1557D01*
Y969D01*
X1601D01*
Y949D01*
X1599Y948D01*
X1596Y946D01*
X1593Y947D01*
X1589Y946D01*
X1585Y944D01*
X1581D01*
X1578Y946D01*
X1573Y947D01*
X1569Y946D01*
X1565Y944D01*
X1561D01*
X1558Y946D01*
X1554Y947D01*
X1549Y946D01*
X1546Y944D01*
X1542D01*
X1538Y946D01*
X1534Y947D01*
X1530Y946D01*
X1526Y944D01*
X1522D01*
X1518Y946D01*
X1514Y947D01*
X1510Y946D01*
X1508Y945D01*
X1504Y944D01*
X1501Y945D01*
X1499Y946D01*
X1495Y947D01*
X1490Y946D01*
X1488Y945D01*
X1485Y944D01*
X1481Y945D01*
X1479Y946D01*
X1475Y947D01*
X1471Y946D01*
X1467Y944D01*
X1463D01*
X1459Y946D01*
X1455Y947D01*
X1451Y946D01*
X1449Y945D01*
X1445Y944D01*
X1442Y945D01*
X1440Y946D01*
X1435Y947D01*
X1431Y946D01*
X1428Y944D01*
X1424D01*
X1420Y946D01*
X1416Y947D01*
X1412Y946D01*
X1409Y945D01*
X1406Y944D01*
X1403Y945D01*
X1400Y946D01*
X1396Y947D01*
X1392Y946D01*
X1390Y945D01*
X1386Y944D01*
X1383Y945D01*
X1381Y946D01*
X1376Y947D01*
X1372Y946D01*
X1369Y944D01*
X1365D01*
X1361Y946D01*
X1357Y947D01*
X1352Y946D01*
X1349Y944D01*
X1346Y940D01*
X1346Y936D01*
Y863D01*
X1346Y859D01*
X1349Y855D01*
X1352Y853D01*
X1357Y852D01*
X1361Y853D01*
X1365Y855D01*
X1369D01*
X1372Y853D01*
X1376Y852D01*
X1381Y853D01*
X1383Y854D01*
X1386Y855D01*
X1390Y854D01*
X1392Y853D01*
X1396Y852D01*
X1400Y853D01*
X1403Y854D01*
X1406Y855D01*
X1409Y854D01*
X1412Y853D01*
X1416Y852D01*
X1420Y853D01*
X1424Y855D01*
X1428D01*
X1431Y853D01*
X1435Y852D01*
X1440Y853D01*
X1442Y854D01*
X1445Y855D01*
X1449Y854D01*
X1451Y853D01*
X1455Y852D01*
X1459Y853D01*
X1463Y855D01*
X1467D01*
X1471Y853D01*
X1475Y852D01*
X1479Y853D01*
X1481Y854D01*
X1485Y855D01*
X1488Y854D01*
X1490Y853D01*
X1495Y852D01*
X1499Y853D01*
X1501Y854D01*
X1504Y855D01*
X1508Y854D01*
X1510Y853D01*
X1514Y852D01*
X1518Y853D01*
X1522Y855D01*
X1526D01*
X1530Y853D01*
X1534Y852D01*
X1538Y853D01*
X1542Y855D01*
X1546D01*
X1549Y853D01*
X1554Y852D01*
X1558Y853D01*
X1561Y855D01*
X1565D01*
X1569Y853D01*
X1573Y852D01*
X1577Y853D01*
X1578Y852D01*
X1582Y850D01*
X1583Y848D01*
X1585Y844D01*
X1597Y832D01*
X1597Y832D01*
X1601Y830D01*
X1605Y829D01*
X1605Y829D01*
X1625D01*
X1625Y829D01*
X1629Y830D01*
X1633Y832D01*
X1635Y834D01*
X1639Y831D01*
X1638Y827D01*
X1639Y822D01*
X1641Y819D01*
X1645Y816D01*
X1649Y816D01*
X1685D01*
X1685Y815D01*
X1727D01*
X1727Y815D01*
X1731Y816D01*
X1735Y819D01*
X1748Y832D01*
X1750Y836D01*
X1751Y840D01*
X1751Y840D01*
Y969D01*
X1794D01*
Y1041D01*
X1774D01*
Y1095D01*
X1924D01*
Y1185D01*
D02*
G37*
G36*
X1139D02*
X911D01*
Y1095D01*
X957D01*
Y1036D01*
X937D01*
Y1014D01*
X913D01*
Y1036D01*
X846D01*
Y964D01*
X853D01*
X855Y960D01*
X844Y949D01*
X841Y948D01*
X837Y949D01*
X826Y960D01*
X828Y964D01*
X834D01*
Y1036D01*
X767D01*
Y1014D01*
X743D01*
Y1036D01*
X723D01*
Y1095D01*
X765D01*
Y1185D01*
X537D01*
Y1095D01*
X696D01*
Y1036D01*
X676D01*
Y964D01*
X743D01*
Y986D01*
X767D01*
Y964D01*
X791D01*
X791Y964D01*
X793Y961D01*
X820Y935D01*
Y871D01*
X809D01*
X808Y872D01*
X807Y876D01*
X811Y882D01*
X813Y890D01*
X811Y898D01*
X806Y905D01*
X800Y910D01*
X791Y911D01*
X783Y910D01*
X776Y905D01*
X772Y898D01*
X770Y890D01*
X772Y882D01*
X776Y876D01*
X775Y872D01*
X773Y871D01*
X756D01*
Y799D01*
X800D01*
Y748D01*
X800Y746D01*
Y722D01*
X861D01*
Y746D01*
X862Y748D01*
Y935D01*
X888Y961D01*
X888Y961D01*
X890Y964D01*
X913D01*
Y986D01*
X937D01*
Y964D01*
X1004D01*
Y1036D01*
X984D01*
Y1095D01*
X1139D01*
Y1185D01*
D02*
G37*
G36*
X318Y724D02*
X308Y723D01*
X298Y719D01*
X290Y712D01*
X284Y704D01*
X280Y695D01*
X279Y684D01*
X280Y674D01*
X284Y665D01*
X290Y656D01*
X298Y650D01*
X308Y646D01*
X318Y645D01*
X328Y646D01*
X338Y650D01*
X346Y656D01*
X352Y665D01*
X356Y674D01*
X358Y684D01*
X356Y695D01*
X352Y704D01*
X346Y712D01*
X338Y719D01*
X328Y723D01*
X318Y724D01*
D02*
G37*
G36*
X430Y670D02*
X420Y668D01*
X410Y664D01*
X402Y658D01*
X396Y650D01*
X392Y640D01*
X390Y630D01*
X392Y620D01*
X396Y610D01*
X402Y602D01*
X410Y596D01*
X420Y592D01*
X430Y590D01*
X440Y592D01*
X450Y596D01*
X458Y602D01*
X464Y610D01*
X468Y620D01*
X470Y630D01*
X468Y640D01*
X464Y650D01*
X458Y658D01*
X450Y664D01*
X440Y668D01*
X430Y670D01*
D02*
G37*
G36*
Y888D02*
X420Y886D01*
X410Y882D01*
X402Y876D01*
X396Y868D01*
X392Y858D01*
X390Y848D01*
X392Y838D01*
X396Y828D01*
X402Y820D01*
X410Y814D01*
X420Y810D01*
X420Y810D01*
X420Y805D01*
X356D01*
X352Y813D01*
X346Y822D01*
X338Y828D01*
X328Y832D01*
X318Y833D01*
X308Y832D01*
X298Y828D01*
X290Y822D01*
X284Y813D01*
X280Y804D01*
X279Y794D01*
X280Y783D01*
X284Y774D01*
X290Y765D01*
X298Y759D01*
X308Y755D01*
X318Y754D01*
X328Y755D01*
X338Y759D01*
X346Y765D01*
X352Y774D01*
X356Y782D01*
X420D01*
X420Y777D01*
X420Y777D01*
X410Y773D01*
X402Y767D01*
X396Y759D01*
X392Y749D01*
X390Y739D01*
X392Y729D01*
X396Y719D01*
X402Y711D01*
X410Y705D01*
X420Y701D01*
X430Y699D01*
X440Y701D01*
X450Y705D01*
X458Y711D01*
X464Y719D01*
X467Y727D01*
X472Y728D01*
X473Y728D01*
X475Y725D01*
X482Y720D01*
X490Y719D01*
X498Y720D01*
X499Y721D01*
X539Y681D01*
X537Y676D01*
X507D01*
Y608D01*
X507Y607D01*
X504Y603D01*
D01*
Y602D01*
X504Y601D01*
Y536D01*
X576D01*
Y579D01*
X584D01*
Y536D01*
X656D01*
Y579D01*
X752D01*
X754Y580D01*
X778D01*
Y599D01*
Y619D01*
Y639D01*
Y660D01*
X754D01*
X752Y661D01*
X656D01*
X653Y664D01*
Y673D01*
X653Y676D01*
X657Y678D01*
D01*
X752D01*
X754Y678D01*
X778D01*
Y698D01*
Y720D01*
X774D01*
X774Y725D01*
X774Y725D01*
X778Y727D01*
X780Y731D01*
X781Y735D01*
X780Y739D01*
X778Y743D01*
X774Y745D01*
X770Y746D01*
X656D01*
Y789D01*
X584D01*
Y773D01*
X580Y771D01*
X509Y841D01*
X510Y842D01*
X511Y850D01*
X510Y858D01*
X505Y865D01*
X498Y870D01*
X490Y871D01*
X482Y870D01*
X475Y865D01*
X472Y861D01*
X467Y862D01*
X464Y868D01*
X458Y876D01*
X450Y882D01*
X440Y886D01*
X430Y888D01*
D02*
G37*
G36*
X905Y911D02*
X897Y910D01*
X890Y905D01*
X885Y898D01*
X884Y890D01*
X885Y882D01*
X890Y875D01*
X897Y870D01*
X905Y869D01*
X910Y870D01*
X918Y861D01*
Y789D01*
X879D01*
Y722D01*
X940D01*
Y746D01*
X940Y748D01*
Y866D01*
X940Y866D01*
X940Y870D01*
X937Y874D01*
X937Y874D01*
X925Y885D01*
X926Y890D01*
X925Y898D01*
X920Y905D01*
X913Y910D01*
X905Y911D01*
D02*
G37*
%LPD*%
D10*
X1150Y291D02*
D03*
Y370D02*
D03*
Y130D02*
D03*
Y209D02*
D03*
X990Y919D02*
D03*
Y841D02*
D03*
X620Y491D02*
D03*
Y569D02*
D03*
X540Y491D02*
D03*
Y569D02*
D03*
X1335Y291D02*
D03*
Y213D02*
D03*
X955Y136D02*
D03*
Y214D02*
D03*
X1240Y210D02*
D03*
Y131D02*
D03*
X1144Y775D02*
D03*
Y853D02*
D03*
X1240Y370D02*
D03*
Y291D02*
D03*
X620Y834D02*
D03*
Y756D02*
D03*
D11*
X679Y128D02*
D03*
X852D02*
D03*
D12*
X631Y1000D02*
D03*
X709D02*
D03*
X1049D02*
D03*
X971D02*
D03*
X711Y835D02*
D03*
X789D02*
D03*
X1034Y370D02*
D03*
X956D02*
D03*
X541Y415D02*
D03*
X619D02*
D03*
X541Y340D02*
D03*
X619D02*
D03*
X1299Y1000D02*
D03*
X1221D02*
D03*
X1839Y1005D02*
D03*
X1761D02*
D03*
X1421D02*
D03*
X1499D02*
D03*
X1874Y540D02*
D03*
X1796D02*
D03*
X1034Y285D02*
D03*
X956D02*
D03*
X801Y1000D02*
D03*
X879D02*
D03*
X1669Y1005D02*
D03*
X1591D02*
D03*
X1629Y305D02*
D03*
X1551D02*
D03*
X1629Y225D02*
D03*
X1551D02*
D03*
X541Y640D02*
D03*
X619D02*
D03*
D13*
X1863Y437D02*
D03*
Y123D02*
D03*
D14*
X1758Y280D02*
D03*
Y331D02*
D03*
Y306D02*
D03*
Y229D02*
D03*
Y254D02*
D03*
D15*
X1245Y531D02*
D03*
Y551D02*
D03*
Y571D02*
D03*
Y590D02*
D03*
Y610D02*
D03*
Y630D02*
D03*
Y649D02*
D03*
Y669D02*
D03*
Y689D02*
D03*
Y709D02*
D03*
Y728D02*
D03*
Y748D02*
D03*
Y768D02*
D03*
Y787D02*
D03*
Y807D02*
D03*
Y827D02*
D03*
X1685D02*
D03*
Y807D02*
D03*
Y787D02*
D03*
Y768D02*
D03*
Y748D02*
D03*
Y728D02*
D03*
Y709D02*
D03*
Y689D02*
D03*
Y669D02*
D03*
Y649D02*
D03*
Y630D02*
D03*
Y610D02*
D03*
Y590D02*
D03*
Y571D02*
D03*
Y551D02*
D03*
Y531D02*
D03*
D16*
X1317Y899D02*
D03*
X1337D02*
D03*
X1357D02*
D03*
X1376D02*
D03*
X1396D02*
D03*
X1416D02*
D03*
X1435D02*
D03*
X1455D02*
D03*
X1475D02*
D03*
X1495D02*
D03*
X1514D02*
D03*
X1534D02*
D03*
X1554D02*
D03*
X1573D02*
D03*
X1593D02*
D03*
X1613D02*
D03*
Y459D02*
D03*
X1593D02*
D03*
X1573D02*
D03*
X1554D02*
D03*
X1534D02*
D03*
X1514D02*
D03*
X1495D02*
D03*
X1475D02*
D03*
X1455D02*
D03*
X1435D02*
D03*
X1416D02*
D03*
X1396D02*
D03*
X1376D02*
D03*
X1357D02*
D03*
X1337D02*
D03*
X1317D02*
D03*
D17*
X1025Y1140D02*
D03*
X651D02*
D03*
X1810D02*
D03*
X1436D02*
D03*
D18*
X791Y756D02*
D03*
X811D02*
D03*
X831D02*
D03*
X850D02*
D03*
X870D02*
D03*
X890D02*
D03*
X910D02*
D03*
X929D02*
D03*
X949D02*
D03*
X969D02*
D03*
Y484D02*
D03*
X949D02*
D03*
X929D02*
D03*
X910D02*
D03*
X890D02*
D03*
X870D02*
D03*
X850D02*
D03*
X831D02*
D03*
X811D02*
D03*
X791D02*
D03*
D19*
X1016Y709D02*
D03*
Y689D02*
D03*
Y669D02*
D03*
Y650D02*
D03*
Y630D02*
D03*
Y610D02*
D03*
Y590D02*
D03*
Y571D02*
D03*
Y551D02*
D03*
Y531D02*
D03*
X744D02*
D03*
Y551D02*
D03*
Y571D02*
D03*
Y590D02*
D03*
Y610D02*
D03*
Y630D02*
D03*
Y650D02*
D03*
Y669D02*
D03*
Y689D02*
D03*
Y709D02*
D03*
D20*
X880Y620D02*
D03*
D21*
X820Y370D02*
X946D01*
X791Y399D02*
X820Y370D01*
X791Y399D02*
Y492D01*
X946Y370D02*
X956Y360D01*
X620Y420D02*
X670D01*
X620Y349D02*
Y420D01*
Y349D02*
X629Y340D01*
X870Y425D02*
X885Y410D01*
X870Y425D02*
Y492D01*
X835Y410D02*
X850Y425D01*
Y492D01*
X1358Y531D02*
Y802D01*
X1317Y843D02*
X1358Y802D01*
X1317Y843D02*
Y899D01*
X1075Y510D02*
X1160D01*
X1054Y531D02*
X1075Y510D01*
X1008Y531D02*
X1054D01*
X1160Y510D02*
X1201Y551D01*
X1196Y571D02*
X1245D01*
X1155Y530D02*
X1196Y571D01*
X1090Y530D02*
X1155D01*
X1069Y551D02*
X1090Y530D01*
X1008Y551D02*
X1069D01*
X1145Y550D02*
X1185Y590D01*
X1100Y550D02*
X1145D01*
X1079Y571D02*
X1100Y550D01*
X1185Y590D02*
X1245D01*
X1008Y571D02*
X1079D01*
X1176Y669D02*
X1243D01*
X1155Y690D02*
X1176Y669D01*
X1114Y690D02*
X1155D01*
X1161Y649D02*
X1245D01*
X1150Y660D02*
X1161Y649D01*
X1130Y660D02*
X1150D01*
X1074Y650D02*
X1114Y690D01*
X1105Y580D02*
X1130D01*
X1095Y590D02*
X1105Y580D01*
X1008Y590D02*
X1095D01*
X1130Y580D02*
X1130Y580D01*
X695Y445D02*
Y540D01*
X670Y420D02*
X695Y445D01*
Y540D02*
X706Y551D01*
X551Y640D02*
Y684D01*
X495Y740D02*
X551Y684D01*
X490Y740D02*
X495D01*
X639Y650D02*
X752D01*
X629Y640D02*
X639Y650D01*
X591Y709D02*
X752D01*
X452Y848D02*
X591Y709D01*
X430Y848D02*
X452D01*
X476Y794D02*
X481Y789D01*
X318Y794D02*
X476D01*
X490Y845D02*
Y850D01*
Y845D02*
X600Y735D01*
X481Y789D02*
X581Y689D01*
X481Y789D02*
X481D01*
X581Y689D02*
X752D01*
X600Y735D02*
X770D01*
X706Y551D02*
X752D01*
X576Y590D02*
X752D01*
X561D02*
X576D01*
X550Y579D02*
X561Y590D01*
X1396Y304D02*
Y459D01*
Y304D02*
X1445Y255D01*
Y340D02*
Y390D01*
X1435Y399D02*
X1445Y390D01*
X1416Y329D02*
X1517Y228D01*
X1490Y300D02*
X1552D01*
X1517Y228D02*
X1555D01*
X1416Y329D02*
Y459D01*
X1140Y771D02*
X1143Y768D01*
X1245D01*
X1123Y728D02*
X1245D01*
X1064Y669D02*
X1123Y728D01*
X1008Y669D02*
X1064D01*
X1057Y689D02*
X1135Y767D01*
X1008Y689D02*
X1057D01*
X1008Y650D02*
X1074D01*
X1244Y610D02*
X1245Y610D01*
X1018Y610D02*
X1244D01*
X1018Y630D02*
X1245D01*
X1008Y630D02*
X1008Y630D01*
X850Y940D02*
X880Y969D01*
X929Y748D02*
Y866D01*
X905Y890D02*
X929Y866D01*
X1613Y899D02*
Y983D01*
X1591Y1005D02*
X1613Y983D01*
X1685Y827D02*
X1727D01*
X1740Y840D01*
Y984D01*
X1761Y1005D01*
X1593Y852D02*
Y899D01*
Y852D02*
X1605Y840D01*
X1625D01*
X1241Y899D02*
X1317D01*
X1240Y900D02*
X1241Y899D01*
X801Y969D02*
Y1010D01*
X880Y969D02*
Y1000D01*
X1317Y899D02*
Y982D01*
X1299Y1000D02*
X1317Y982D01*
X969Y748D02*
Y819D01*
X990Y841D01*
X1357Y459D02*
X1358Y460D01*
X1685Y531D02*
X1787D01*
X1796Y540D01*
X1358Y460D02*
Y530D01*
X1554Y459D02*
X1573D01*
X1554D02*
Y512D01*
X1535Y531D02*
X1554Y512D01*
X1358Y531D02*
X1535D01*
X1625Y840D02*
X1680Y895D01*
Y930D01*
X969Y476D02*
Y492D01*
X1435Y399D02*
Y459D01*
X1240Y370D02*
X1311D01*
X1337Y396D01*
Y459D01*
X1150Y370D02*
X1238Y459D01*
X1317D01*
X1357Y376D02*
Y459D01*
X1339Y358D02*
X1357Y376D01*
X1339Y295D02*
Y358D01*
X1335Y291D02*
X1339Y295D01*
X850Y748D02*
Y940D01*
X801Y969D02*
X831Y939D01*
Y748D02*
Y939D01*
X789Y830D02*
X791Y832D01*
Y890D01*
X811Y748D02*
Y808D01*
X789Y830D02*
X811Y808D01*
X1685Y787D02*
X1732D01*
X1785Y840D01*
Y845D01*
X1774Y689D02*
X1775Y688D01*
X969Y476D02*
X1154D01*
X1209Y531D01*
X1245D01*
X1201Y551D02*
X1245D01*
X1768Y689D02*
X1772Y685D01*
X1775Y688D01*
X1685Y689D02*
X1768D01*
X1774D01*
X1818Y739D02*
X1854D01*
X1804Y725D02*
X1818Y739D01*
X1685Y630D02*
X1773D01*
X1804Y660D01*
Y725D01*
X1490Y375D02*
X1501D01*
X1455Y410D02*
Y459D01*
Y410D02*
X1490Y375D01*
D22*
X956Y285D02*
Y406D01*
X920Y442D02*
X956Y406D01*
X920Y442D02*
Y499D01*
X855Y131D02*
X955D01*
Y136D01*
Y80D02*
Y131D01*
X956Y215D02*
Y285D01*
X955Y214D02*
X956Y215D01*
X870Y285D02*
X956D01*
X852Y128D02*
X855Y131D01*
X965Y285D02*
X966Y286D01*
X1635Y80D02*
X1685Y130D01*
X955Y80D02*
X1635D01*
D23*
X1552Y300D02*
X1555Y303D01*
X1694Y254D02*
X1758D01*
X1695Y280D02*
X1758D01*
X1240Y210D02*
Y291D01*
X709Y1000D02*
X801D01*
X971Y1150D02*
X1041D01*
X667D02*
X709D01*
Y1000D02*
Y1150D01*
X879Y1000D02*
X880D01*
X971D01*
Y1150D01*
X1669Y1005D02*
X1761D01*
Y1131D01*
X1780Y1150D01*
X1810D01*
X1499Y1005D02*
X1591D01*
X1436Y1150D02*
X1475D01*
X1499Y1126D01*
Y1005D02*
Y1126D01*
X990Y841D02*
X1131D01*
X1144Y853D01*
X1191Y900D01*
X1240D01*
X1150Y209D02*
Y291D01*
X1672Y303D02*
X1695Y280D01*
X1634Y303D02*
X1672D01*
X1668Y228D02*
X1694Y254D01*
X1634Y228D02*
X1668D01*
X1685Y130D02*
Y197D01*
X1717Y229D01*
X1758D01*
D24*
X1849Y889D02*
D03*
X1909D02*
D03*
X1849Y839D02*
D03*
X1909D02*
D03*
X1849Y789D02*
D03*
X1909D02*
D03*
X1849Y739D02*
D03*
X1909D02*
D03*
X1849Y689D02*
D03*
D25*
X1909D02*
D03*
D26*
X374Y1122D02*
D03*
Y138D02*
D03*
D27*
X430Y412D02*
D03*
D28*
X318Y466D02*
D03*
X430Y521D02*
D03*
X318Y575D02*
D03*
X430Y630D02*
D03*
X318Y684D02*
D03*
X430Y739D02*
D03*
X318Y794D02*
D03*
X430Y848D02*
D03*
D29*
X1130Y580D02*
D03*
Y660D02*
D03*
X490Y850D02*
D03*
Y740D02*
D03*
X1445Y340D02*
D03*
Y255D02*
D03*
X1490Y300D02*
D03*
X240Y850D02*
D03*
X870Y285D02*
D03*
X905Y890D02*
D03*
X895Y830D02*
D03*
X1335Y130D02*
D03*
X1043D02*
D03*
X1240Y900D02*
D03*
X1685Y130D02*
D03*
X1680Y930D02*
D03*
X1720Y475D02*
D03*
Y85D02*
D03*
X791Y890D02*
D03*
X1785Y845D02*
D03*
X240Y575D02*
D03*
X1768Y689D02*
D03*
X955Y80D02*
D03*
X835Y410D02*
D03*
X885D02*
D03*
X1490Y375D02*
D03*
M02*
