M48
;Layer_Color=9474304
;FILE_FORMAT=2:3
INCH,LZ
;TYPE=PLATED
T1F00S00C0.012
T2F00S00C0.028
T3F00S00C0.030
T4F00S00C0.100
%
T01
X0024Y00575
X00835Y0041
X00885
X0087Y00285
X00955Y0008
X01043Y0013
X01335
X01445Y00255
Y0034
X0149Y00375
X0149Y003
X01685Y0013
X0172Y00085
Y00475
X01768Y00689
X01785Y00845
X0168Y0093
X0124Y009
X00905Y0089
X00895Y0083
X00791Y0089
X0113Y0066
Y0058
X0049Y0074
Y0085
X0024
T02
X01854Y00689
Y00739
Y00789
Y00839
Y00889
X01904
Y00839
Y00789
Y00739
Y00689
T03
X00318Y00466
Y00575
X0043Y00521
Y00412
Y0063
Y00739
Y00848
X00318Y00794
Y00684
T04
X00374Y00138
Y01122
M30
