%FSLAX23Y23*%
%MOIN*%
G70*
G01*
G75*
%ADD10R,0.059X0.055*%
%ADD11R,0.100X0.060*%
%ADD12R,0.055X0.059*%
%ADD13R,0.071X0.075*%
%ADD14R,0.055X0.016*%
%ADD15O,0.083X0.010*%
%ADD16O,0.010X0.083*%
%ADD17R,0.217X0.079*%
%ADD18R,0.010X0.055*%
%ADD19R,0.055X0.010*%
%ADD20R,0.163X0.163*%
%ADD21C,0.010*%
%ADD22C,0.020*%
%ADD23C,0.015*%
%ADD24O,0.050X0.040*%
%ADD25R,0.050X0.040*%
%ADD26C,0.187*%
%ADD27R,0.067X0.067*%
%ADD28C,0.067*%
%ADD29C,0.030*%
%ADD30R,0.024X0.051*%
%ADD31R,0.024X0.043*%
%ADD32C,0.024*%
%ADD33C,0.010*%
%ADD34C,0.008*%
%ADD35C,0.008*%
%ADD36C,0.006*%
%ADD37R,0.067X0.063*%
%ADD38R,0.108X0.068*%
%ADD39R,0.063X0.067*%
%ADD40R,0.079X0.083*%
%ADD41R,0.063X0.024*%
%ADD42O,0.091X0.018*%
%ADD43O,0.018X0.091*%
%ADD44R,0.225X0.087*%
%ADD45R,0.018X0.063*%
%ADD46R,0.063X0.018*%
%ADD47R,0.171X0.171*%
%ADD48O,0.058X0.048*%
%ADD49R,0.058X0.048*%
%ADD50C,0.195*%
%ADD51R,0.075X0.075*%
%ADD52C,0.075*%
%ADD53C,0.038*%
%ADD54R,0.032X0.059*%
%ADD55R,0.032X0.051*%
%ADD56C,0.005*%
%ADD57C,0.007*%
D56*
X1841Y889D02*
X1868D01*
X1854Y875D02*
Y903D01*
X1891Y889D02*
X1918D01*
X1904Y875D02*
Y903D01*
X1841Y839D02*
X1868D01*
X1854Y825D02*
Y853D01*
X1891Y839D02*
X1918D01*
X1904Y825D02*
Y853D01*
X1841Y789D02*
X1868D01*
X1854Y775D02*
Y803D01*
X1891Y789D02*
X1918D01*
X1904Y775D02*
Y803D01*
X1841Y739D02*
X1868D01*
X1854Y725D02*
Y753D01*
X1891Y739D02*
X1918D01*
X1904Y725D02*
Y753D01*
X1841Y689D02*
X1868D01*
X1854Y675D02*
Y703D01*
X1891Y689D02*
X1918D01*
X1904Y675D02*
Y703D01*
X324Y1122D02*
X424D01*
X374Y1072D02*
Y1172D01*
X324Y138D02*
X424D01*
X374Y88D02*
Y188D01*
X415Y412D02*
X445D01*
X430Y397D02*
Y427D01*
X303Y466D02*
X333D01*
X318Y452D02*
Y481D01*
X415Y521D02*
X445D01*
X430Y506D02*
Y536D01*
X303Y575D02*
X333D01*
X318Y561D02*
Y590D01*
X415Y630D02*
X445D01*
X430Y615D02*
Y645D01*
X303Y684D02*
X333D01*
X318Y670D02*
Y699D01*
X415Y739D02*
X445D01*
X430Y724D02*
Y754D01*
X303Y794D02*
X333D01*
X318Y779D02*
Y808D01*
X415Y848D02*
X445D01*
X430Y833D02*
Y863D01*
X1124Y580D02*
X1136D01*
X1130Y574D02*
Y586D01*
X1124Y660D02*
X1136D01*
X1130Y654D02*
Y666D01*
X484Y850D02*
X496D01*
X490Y844D02*
Y856D01*
X484Y740D02*
X496D01*
X490Y734D02*
Y746D01*
X1439Y340D02*
X1451D01*
X1445Y334D02*
Y346D01*
X1439Y255D02*
X1451D01*
X1445Y249D02*
Y261D01*
X1484Y300D02*
X1496D01*
X1490Y294D02*
Y306D01*
X234Y850D02*
X246D01*
X240Y844D02*
Y856D01*
X864Y285D02*
X876D01*
X870Y279D02*
Y291D01*
X899Y890D02*
X911D01*
X905Y884D02*
Y896D01*
X889Y830D02*
X901D01*
X895Y824D02*
Y836D01*
X1329Y130D02*
X1341D01*
X1335Y124D02*
Y136D01*
X1037Y130D02*
X1049D01*
X1043Y124D02*
Y136D01*
X1234Y900D02*
X1246D01*
X1240Y894D02*
Y906D01*
X1679Y130D02*
X1691D01*
X1685Y124D02*
Y136D01*
X1674Y930D02*
X1686D01*
X1680Y924D02*
Y936D01*
X1714Y475D02*
X1726D01*
X1720Y469D02*
Y481D01*
X1714Y85D02*
X1726D01*
X1720Y79D02*
Y91D01*
X785Y890D02*
X797D01*
X791Y884D02*
Y896D01*
X1779Y845D02*
X1791D01*
X1785Y839D02*
Y851D01*
X234Y575D02*
X246D01*
X240Y569D02*
Y581D01*
X1762Y689D02*
X1774D01*
X1768Y683D02*
Y695D01*
X949Y80D02*
X961D01*
X955Y74D02*
Y86D01*
X829Y410D02*
X841D01*
X835Y404D02*
Y416D01*
X879Y410D02*
X891D01*
X885Y404D02*
Y416D01*
X1484Y375D02*
X1496D01*
X1490Y369D02*
Y381D01*
M02*
