%FSLAX23Y23*%
%MOIN*%
G70*
G01*
G75*
G04 Layer_Color=65535*
%ADD10R,0.059X0.055*%
%ADD11R,0.100X0.060*%
%ADD12R,0.055X0.059*%
%ADD13R,0.071X0.075*%
%ADD14R,0.055X0.016*%
%ADD15O,0.083X0.010*%
%ADD16O,0.010X0.083*%
%ADD17R,0.217X0.079*%
%ADD18R,0.010X0.055*%
%ADD19R,0.055X0.010*%
%ADD20R,0.163X0.163*%
%ADD21C,0.010*%
%ADD22C,0.020*%
%ADD23C,0.015*%
%ADD24O,0.050X0.040*%
%ADD25R,0.050X0.040*%
%ADD26C,0.187*%
%ADD27R,0.067X0.067*%
%ADD28C,0.067*%
%ADD29C,0.030*%
%ADD30R,0.024X0.051*%
%ADD31R,0.024X0.043*%
%ADD32C,0.024*%
%ADD33C,0.010*%
%ADD34C,0.008*%
%ADD35C,0.008*%
%ADD36C,0.006*%
D21*
X1690Y962D02*
X1705Y947D01*
X1706D01*
X1349Y1031D02*
X1377Y1003D01*
X1349Y1031D02*
Y1032D01*
X675Y45D02*
X817D01*
X675Y218D02*
X817D01*
X852Y183D01*
X817Y45D02*
X852Y80D01*
X1748Y359D02*
Y441D01*
X1811D01*
X1748Y119D02*
X1811D01*
X1748D02*
Y201D01*
X1819Y654D02*
Y664D01*
X1940Y914D02*
Y924D01*
X1819Y914D02*
Y924D01*
Y654D02*
X1940D01*
X1819Y924D02*
X1940D01*
X885Y75D02*
Y49D01*
X898Y62D02*
X872D01*
D32*
X1353Y555D02*
G03*
X1353Y555I-12J0D01*
G01*
D33*
X1295Y459D02*
G03*
X1295Y459I-5J0D01*
G01*
X720Y754D02*
G03*
X720Y754I-5J0D01*
G01*
D34*
X1124Y331D02*
X1175D01*
X1124Y169D02*
X1175D01*
X670Y974D02*
Y1026D01*
X1010Y974D02*
Y1026D01*
X750Y809D02*
Y861D01*
X964Y880D02*
X1016D01*
X995Y344D02*
Y396D01*
X594Y530D02*
X646D01*
X514D02*
X566D01*
X580Y389D02*
Y441D01*
Y314D02*
Y366D01*
X1260Y974D02*
Y1026D01*
X1309Y252D02*
X1360D01*
X1800Y979D02*
Y1031D01*
X1460Y979D02*
Y1031D01*
X1835Y514D02*
Y566D01*
X995Y259D02*
Y311D01*
X929Y175D02*
X981D01*
X1215Y171D02*
X1266D01*
X840Y974D02*
Y1026D01*
X1118Y814D02*
X1170D01*
X1630Y979D02*
Y1031D01*
X1215Y331D02*
X1266D01*
X1590Y279D02*
Y331D01*
Y199D02*
Y251D01*
X1628Y516D02*
Y842D01*
X1302Y516D02*
Y842D01*
X1628D01*
X1302Y516D02*
X1628D01*
X740Y480D02*
X771D01*
X740D02*
Y511D01*
X989Y480D02*
X1020D01*
Y511D01*
Y729D02*
Y760D01*
X989D02*
X1020D01*
X740D02*
X771D01*
X740Y729D02*
Y760D01*
X118Y354D02*
X488D01*
X118Y906D02*
X488D01*
X488Y24D02*
Y1236D01*
X25Y24D02*
X488D01*
X25Y1236D02*
X488D01*
X118Y24D02*
Y1236D01*
X580Y614D02*
Y666D01*
X594Y795D02*
X646D01*
D35*
X1170Y415D02*
X1130D01*
Y435D01*
X1137Y442D01*
X1150D01*
X1157Y435D01*
Y415D01*
Y428D02*
X1170Y442D01*
Y455D02*
Y468D01*
Y462D01*
X1130D01*
X1137Y455D01*
Y488D02*
X1130Y495D01*
Y508D01*
X1137Y515D01*
X1163D01*
X1170Y508D01*
Y495D01*
X1163Y488D01*
X1137D01*
X1025Y89D02*
Y49D01*
X1052D01*
X1092Y89D02*
X1065D01*
Y49D01*
X1092D01*
X1065Y69D02*
X1078D01*
X1105Y89D02*
Y49D01*
X1125D01*
X1132Y56D01*
Y82D01*
X1125Y89D01*
X1105D01*
X1172Y49D02*
X1145D01*
X1172Y76D01*
Y82D01*
X1165Y89D01*
X1152D01*
X1145Y82D01*
X762Y273D02*
X755Y280D01*
X742D01*
X735Y273D01*
Y247D01*
X742Y240D01*
X755D01*
X762Y247D01*
X775Y280D02*
X802D01*
Y273D01*
X775Y247D01*
Y240D01*
X557Y1013D02*
X550Y1020D01*
X537D01*
X530Y1013D01*
Y987D01*
X537Y980D01*
X550D01*
X557Y987D01*
X570Y980D02*
X583D01*
X577D01*
Y1020D01*
X570Y1013D01*
X1121Y1018D02*
X1114Y1025D01*
X1101D01*
X1094Y1018D01*
Y992D01*
X1101Y985D01*
X1114D01*
X1121Y992D01*
X1161Y985D02*
X1134D01*
X1161Y1012D01*
Y1018D01*
X1154Y1025D01*
X1141D01*
X1134Y1018D01*
X722Y913D02*
X715Y920D01*
X702D01*
X695Y913D01*
Y887D01*
X702Y880D01*
X715D01*
X722Y887D01*
X755Y880D02*
Y920D01*
X735Y900D01*
X762D01*
X1042Y872D02*
X1035Y865D01*
Y852D01*
X1042Y845D01*
X1068D01*
X1075Y852D01*
Y865D01*
X1068Y872D01*
X1035Y912D02*
Y885D01*
X1055D01*
X1048Y898D01*
Y905D01*
X1055Y912D01*
X1068D01*
X1075Y905D01*
Y892D01*
X1068Y885D01*
X1037Y453D02*
X1030Y460D01*
X1017D01*
X1010Y453D01*
Y427D01*
X1017Y420D01*
X1030D01*
X1037Y427D01*
X1077Y460D02*
X1063Y453D01*
X1050Y440D01*
Y427D01*
X1057Y420D01*
X1070D01*
X1077Y427D01*
Y433D01*
X1070Y440D01*
X1050D01*
X669Y487D02*
X662Y480D01*
Y467D01*
X669Y460D01*
X696D01*
X702Y467D01*
Y480D01*
X696Y487D01*
X669Y500D02*
X662Y507D01*
Y520D01*
X669Y527D01*
X676D01*
X682Y520D01*
X689Y527D01*
X696D01*
X702Y520D01*
Y507D01*
X696Y500D01*
X689D01*
X682Y507D01*
X676Y500D01*
X669D01*
X682Y507D02*
Y520D01*
X669Y575D02*
X662Y568D01*
Y555D01*
X669Y548D01*
X695D01*
X702Y555D01*
Y568D01*
X695Y575D01*
Y588D02*
X702Y595D01*
Y608D01*
X695Y615D01*
X669D01*
X662Y608D01*
Y595D01*
X669Y588D01*
X675D01*
X682Y595D01*
Y615D01*
X690Y429D02*
X683Y436D01*
X670D01*
X663Y429D01*
Y403D01*
X670Y396D01*
X683D01*
X690Y403D01*
X703Y396D02*
X716D01*
X710D01*
Y436D01*
X703Y429D01*
X736D02*
X743Y436D01*
X756D01*
X763Y429D01*
Y403D01*
X756Y396D01*
X743D01*
X736Y403D01*
Y429D01*
X690Y354D02*
X683Y361D01*
X670D01*
X663Y354D01*
Y328D01*
X670Y321D01*
X683D01*
X690Y328D01*
X703Y321D02*
X716D01*
X710D01*
Y361D01*
X703Y354D01*
X736Y321D02*
X750D01*
X743D01*
Y361D01*
X736Y354D01*
X1152Y1078D02*
X1145Y1085D01*
X1132D01*
X1125Y1078D01*
Y1052D01*
X1132Y1045D01*
X1145D01*
X1152Y1052D01*
X1165Y1045D02*
X1178D01*
X1172D01*
Y1085D01*
X1165Y1078D01*
X1198D02*
X1205Y1085D01*
X1218D01*
X1225Y1078D01*
Y1072D01*
X1218Y1065D01*
X1212D01*
X1218D01*
X1225Y1058D01*
Y1052D01*
X1218Y1045D01*
X1205D01*
X1198Y1052D01*
X1387Y177D02*
X1380Y170D01*
Y157D01*
X1387Y150D01*
X1413D01*
X1420Y157D01*
Y170D01*
X1413Y177D01*
X1420Y190D02*
Y203D01*
Y197D01*
X1380D01*
X1387Y190D01*
X1420Y243D02*
X1380D01*
X1400Y223D01*
Y250D01*
X1907Y987D02*
X1900Y980D01*
Y967D01*
X1907Y960D01*
X1933D01*
X1940Y967D01*
Y980D01*
X1933Y987D01*
X1940Y1000D02*
Y1013D01*
Y1007D01*
X1900D01*
X1907Y1000D01*
X1900Y1060D02*
Y1033D01*
X1920D01*
X1913Y1047D01*
Y1053D01*
X1920Y1060D01*
X1933D01*
X1940Y1053D01*
Y1040D01*
X1933Y1033D01*
X1287Y1078D02*
X1280Y1085D01*
X1267D01*
X1260Y1078D01*
Y1052D01*
X1267Y1045D01*
X1280D01*
X1287Y1052D01*
X1300Y1045D02*
X1313D01*
X1307D01*
Y1085D01*
X1300Y1078D01*
X1360Y1085D02*
X1347Y1078D01*
X1333Y1065D01*
Y1052D01*
X1340Y1045D01*
X1353D01*
X1360Y1052D01*
Y1058D01*
X1353Y1065D01*
X1333D01*
X1792Y623D02*
X1785Y630D01*
X1772D01*
X1765Y623D01*
Y597D01*
X1772Y590D01*
X1785D01*
X1792Y597D01*
X1805Y590D02*
X1818D01*
X1812D01*
Y630D01*
X1805Y623D01*
X1838Y597D02*
X1845Y590D01*
X1858D01*
X1865Y597D01*
Y623D01*
X1858Y630D01*
X1845D01*
X1838Y623D01*
Y617D01*
X1845Y610D01*
X1865D01*
X1027Y228D02*
X1020Y235D01*
X1007D01*
X1000Y228D01*
Y202D01*
X1007Y195D01*
X1020D01*
X1027Y202D01*
X1067Y195D02*
X1040D01*
X1067Y222D01*
Y228D01*
X1060Y235D01*
X1047D01*
X1040Y228D01*
X1080D02*
X1087Y235D01*
X1100D01*
X1107Y228D01*
Y202D01*
X1100Y195D01*
X1087D01*
X1080Y202D01*
Y228D01*
X870Y190D02*
X910D01*
Y217D01*
Y230D02*
Y243D01*
Y237D01*
X870D01*
X877Y230D01*
X1215Y90D02*
Y50D01*
X1242D01*
X1282Y90D02*
X1255D01*
Y50D01*
X1282D01*
X1255Y70D02*
X1268D01*
X1295Y90D02*
Y50D01*
X1315D01*
X1322Y57D01*
Y83D01*
X1315Y90D01*
X1295D01*
X1335Y50D02*
X1348D01*
X1342D01*
Y90D01*
X1335Y83D01*
X1795Y740D02*
X1755D01*
Y760D01*
X1762Y767D01*
X1775D01*
X1782Y760D01*
Y740D01*
X1795Y780D02*
Y793D01*
Y787D01*
X1755D01*
X1762Y780D01*
X1725Y365D02*
X1685D01*
Y385D01*
X1692Y392D01*
X1705D01*
X1712Y385D01*
Y365D01*
X1692Y405D02*
X1685Y412D01*
Y425D01*
X1692Y432D01*
X1698D01*
X1705Y425D01*
Y418D01*
Y425D01*
X1712Y432D01*
X1718D01*
X1725Y425D01*
Y412D01*
X1718Y405D01*
X815Y915D02*
Y955D01*
X835D01*
X842Y948D01*
Y935D01*
X835Y928D01*
X815D01*
X828D02*
X842Y915D01*
X855D02*
X868D01*
X862D01*
Y955D01*
X855Y948D01*
X1162Y895D02*
X1122D01*
Y915D01*
X1129Y922D01*
X1142D01*
X1149Y915D01*
Y895D01*
Y908D02*
X1162Y922D01*
X1129Y935D02*
X1122Y942D01*
Y955D01*
X1129Y962D01*
X1135D01*
X1142Y955D01*
Y948D01*
Y955D01*
X1149Y962D01*
X1155D01*
X1162Y955D01*
Y942D01*
X1155Y935D01*
X1720Y920D02*
Y960D01*
X1740D01*
X1747Y953D01*
Y940D01*
X1740Y933D01*
X1720D01*
X1733D02*
X1747Y920D01*
X1787Y960D02*
X1760D01*
Y940D01*
X1773Y947D01*
X1780D01*
X1787Y940D01*
Y927D01*
X1780Y920D01*
X1767D01*
X1760Y927D01*
X1255Y420D02*
X1215D01*
Y440D01*
X1222Y447D01*
X1235D01*
X1242Y440D01*
Y420D01*
Y433D02*
X1255Y447D01*
X1215Y487D02*
X1222Y473D01*
X1235Y460D01*
X1248D01*
X1255Y467D01*
Y480D01*
X1248Y487D01*
X1242D01*
X1235Y480D01*
Y460D01*
X1560Y350D02*
Y390D01*
X1580D01*
X1587Y383D01*
Y370D01*
X1580Y363D01*
X1560D01*
X1573D02*
X1587Y350D01*
X1600Y383D02*
X1607Y390D01*
X1620D01*
X1627Y383D01*
Y377D01*
X1620Y370D01*
X1627Y363D01*
Y357D01*
X1620Y350D01*
X1607D01*
X1600Y357D01*
Y363D01*
X1607Y370D01*
X1600Y377D01*
Y383D01*
X1607Y370D02*
X1620D01*
X1560Y140D02*
Y180D01*
X1580D01*
X1587Y173D01*
Y160D01*
X1580Y153D01*
X1560D01*
X1573D02*
X1587Y140D01*
X1600Y147D02*
X1607Y140D01*
X1620D01*
X1627Y147D01*
Y173D01*
X1620Y180D01*
X1607D01*
X1600Y173D01*
Y167D01*
X1607Y160D01*
X1627D01*
X1685Y895D02*
Y862D01*
X1692Y855D01*
X1705D01*
X1712Y862D01*
Y895D01*
X1752Y855D02*
X1725D01*
X1752Y882D01*
Y888D01*
X1745Y895D01*
X1732D01*
X1725Y888D01*
X1155Y1220D02*
Y1213D01*
X1168Y1200D01*
X1182Y1213D01*
Y1220D01*
X1168Y1200D02*
Y1180D01*
X1195D02*
X1208D01*
X1202D01*
Y1220D01*
X1195Y1213D01*
X1238Y1220D02*
Y1213D01*
X1251Y1200D01*
X1265Y1213D01*
Y1220D01*
X1251Y1200D02*
Y1180D01*
X1305D02*
X1278D01*
X1305Y1207D01*
Y1213D01*
X1298Y1220D01*
X1285D01*
X1278Y1213D01*
X1045Y780D02*
Y747D01*
X1052Y740D01*
X1065D01*
X1072Y747D01*
Y780D01*
X1085Y740D02*
X1098D01*
X1092D01*
Y780D01*
X1085Y773D01*
X510Y77D02*
Y63D01*
Y70D01*
X543D01*
X550Y63D01*
Y57D01*
X543Y50D01*
X550Y90D02*
Y103D01*
Y97D01*
X510D01*
X517Y90D01*
X515Y685D02*
Y725D01*
X535D01*
X542Y718D01*
Y705D01*
X535Y698D01*
X515D01*
X528D02*
X542Y685D01*
X582D02*
X555D01*
X582Y712D01*
Y718D01*
X575Y725D01*
X562D01*
X555Y718D01*
X607Y904D02*
X600Y897D01*
Y884D01*
X607Y877D01*
X633D01*
X640Y884D01*
Y897D01*
X633Y904D01*
X607Y917D02*
X600Y924D01*
Y937D01*
X607Y944D01*
X613D01*
X620Y937D01*
Y930D01*
Y937D01*
X627Y944D01*
X633D01*
X640Y937D01*
Y924D01*
X633Y917D01*
D36*
X1924Y626D02*
Y636D01*
Y631D01*
X1894D01*
X1899Y626D01*
M02*
